<svg aria-hidden="true" style="position: absolute; width: 0; height: 0; overflow: hidden;" version="1.1" xmlns="http://www.w3.org/2000/svg" xmlns:xlink="http://www.w3.org/1999/xlink">
<defs>
<symbol id="icon-logo-black" viewBox="0 0 33 32">
<path d="M16.547 32c-8.837 0-16-7.163-16-16s7.163-16 16-16c8.837 0 16 7.163 16 16s-7.163 16-16 16zM21.539 7.453c0.243-0.863-0.595-1.373-1.359-0.828l-10.678 7.607c-0.83 0.591-0.699 1.768 0.196 1.768h2.812v-0.022h5.48l-4.465 1.575-1.968 6.993c-0.243 0.863 0.594 1.373 1.359 0.828l10.678-7.607c0.83-0.591 0.699-1.768-0.196-1.768h-4.264l2.406-8.547z"></path>
</symbol>
<symbol id="icon-group2" viewBox="0 0 46 32">
<path d="M18.711 19.393c0.206 0.754-0.124 1.335-0.498 1.831-0.54 0.693-1.126 1.303-1.77 1.849l-0.018 0.015c-3.066 2.446-6.608 3.362-10.481 2.961-0.985-0.105-1.97-0.353-3.062-0.565 0.215 1.018 1.034 1.782 1.313 2.821-0.464-0.032-0.673-0.336-0.853-0.585-0.539-0.726-1.251-1.742-1.944-2.772l-0.22-0.347c-0.332-0.511-0.285-0.804 0.226-1.065 1.057-0.559 2.182-0.74 3.345-0.529 0.043 0.014 0.086 0.099 0.166 0.219-0.535 0.847-1.644 0.25-2.33 0.905 1.368 0.823 2.866 1.024 4.364 1.081 1.568 0.058 3.114-0.035 4.614-0.497 1.472-0.448 2.777-1.188 4.053-2.055 1.291-0.839 2.286-1.939 3.095-3.266z"></path>
<path d="M9.228 3.106c-0.217-0.261-0.243-0.624-0.376-1.018-0.097-0.295-0.161-0.47-0.228-0.644l0.039 0.116c-0.034-0.107-0.114-0.443-0.191-0.509-0.249-0.206-0.676 0.122-0.702 0.377-0.016 0.146 0.071 0.304 0.131 0.464 0.055 0.148 0.121 0.322 0.165 0.449 0.098 0.293 0.274 0.576 0.351 0.886 0.043 0.146 0.137 0.285 0.18 0.431 0.068 0.271 0.036 0.512-0.020 0.86-0.047 0.323-0.351 1.134 0.032 1.226 0.214 0.042 0.401-0.087 0.457-0.19 0.027-0.074 0.070-0.302 0.097-0.427 0.050-0.233 0.096-0.427 0.128-0.662 0.025-0.177 0.067-0.456 0.112-0.574 0.037-0.112 0.133-0.218 0.229-0.336 0.075-0.108 0.151-0.209 0.232-0.31 0.407-0.504 0.617-0.669 1.057-1.125 0.094-0.099 0.428-0.341 0.383-0.584-0.043-0.262-0.371-0.264-0.481-0.192-0.049 0.033-0.169 0.201-0.229 0.272-0.070 0.088-0.141 0.167-0.217 0.24l-0.001 0.001c-0.269 0.293-0.489 0.547-0.745 0.842-0.124 0.141-0.222 0.337-0.403 0.408zM11.552 2.784c-0.207 0.010-0.316 0.070-0.481 0.168-0.262 0.166-0.301 0.232-0.472 0.446-0.323 0.384-0.47 1.109-0.182 1.609 0.165 0.21 0.512 0.453 0.833 0.519 0.384 0.085 0.688 0.008 0.946-0.126 0.453-0.261 0.797-0.721 0.779-1.231 0.060-0.817-0.484-1.454-1.424-1.385zM10.952 4.388c-0.021-0.408 0.347-0.968 0.697-0.995 0.454-0.036 0.786 0.482 0.615 1.004-0.087 0.28-0.387 0.494-0.59 0.53-0.432 0.064-0.704-0.222-0.722-0.539zM14.076 3.371c-0.551-0.084-0.651 0.382-0.728 0.87-0.027 0.19-0.079 0.629-0.076 0.848 0.008 0.477 0.295 0.739 0.631 0.858 0.919 0.251 1.329-0.163 1.609-0.86 0.095-0.229 0.166-0.495 0.203-0.773l0.002-0.016c0.039-0.305 0.082-0.841-0.091-0.968-0.107-0.082-0.425-0.051-0.496 0.134-0.073 0.204-0.082 0.725-0.137 1.002-0.069 0.347-0.302 0.914-0.561 0.926-0.756 0.088-0.421-0.958-0.317-1.456 0.046-0.195 0.123-0.438-0.037-0.564zM18.686 2.131c-0.274 0.036-0.452 0.5-0.154 0.602 0.242 0.084 0.587-0.131 0.552-0.411-0.021-0.163-0.202-0.221-0.398-0.19zM18.494 3.649c-0.254 0.032-0.29 0.311-0.342 0.505-0.022 0.088-0.093 0.454-0.117 0.625-0.057 0.477-0.153 0.84-0.266 1.304-0.165 0.646-0.325 1.498-0.805 1.666-0.147 0.049-0.638 0.010-0.68 0.283-0.041 0.266 0.309 0.431 0.589 0.396 0.098-0.009 0.256-0.044 0.357-0.085 0.114-0.046 0.231-0.117 0.3-0.162 0.152-0.1 0.424-0.419 0.512-0.583 0.080-0.159 0.116-0.374 0.19-0.585 0.058-0.18 0.104-0.375 0.149-0.563 0.086-0.39 0.199-0.796 0.265-1.175 0.050-0.297 0.099-0.576 0.154-0.853 0.030-0.165 0.125-0.393 0.068-0.585-0.038-0.133-0.203-0.214-0.373-0.187zM19.981 3.992c-0.551-0.083-0.651 0.382-0.728 0.87-0.026 0.191-0.079 0.629-0.076 0.848 0.008 0.477 0.296 0.739 0.631 0.858 0.919 0.251 1.33-0.163 1.609-0.861 0.095-0.229 0.167-0.495 0.203-0.772l0.002-0.017c0.038-0.305 0.082-0.841-0.091-0.969-0.107-0.082-0.426-0.051-0.497 0.134-0.073 0.205-0.082 0.725-0.137 1.002-0.069 0.346-0.302 0.914-0.561 0.926-0.756 0.088-0.421-0.958-0.317-1.456 0.046-0.195 0.123-0.438-0.038-0.564zM23.195 4.008c-0.348 0.002-0.677 0.077-0.936 0.333-0.101 0.105-0.162 0.382-0.167 0.549-0.009 0.27 0.236 0.507 0.436 0.689 0.165 0.146 0.574 0.414 0.507 0.684-0.437 0.482-0.633-0.041-0.992 0.069-0.066 0.019-0.15 0.081-0.169 0.137-0.091 0.318-0.011 0.41 0.517 0.588 0.224 0.075 0.579 0.061 0.77-0.041 0.266-0.14 0.497-0.386 0.547-0.735 0.062-0.47-0.311-0.779-0.55-1.010-0.053-0.050-0.366-0.25-0.335-0.427 0.034-0.202 0.244-0.238 0.584-0.106 0.121 0.071 0.391 0.325 0.529 0.236 0.068-0.032 0.221-0.144 0.219-0.312-0.002-0.225-0.234-0.41-0.478-0.539-0.122-0.064-0.451-0.118-0.483-0.115zM26.183 4.393c-0.024-0.44 0.108-0.6 0.188-0.933 0.081-0.217 0.136-0.378-0.184-0.393-0.506-0.027-0.499 0.398-0.595 0.762-0.041 0.144-0.112 0.522-0.229 0.587-0.11 0.059-0.548 0.007-0.685 0.025-0.133 0.037-0.255 0.154-0.286 0.272-0.043 0.105-0.020 0.307 0.107 0.391 0.175 0.109 0.641-0.042 0.764 0.138-0.064 0.366-0.102 0.658-0.165 0.896-0.019 0.114-0.146 0.59-0.177 0.702-0.024 0.101-0.221 0.634-0.194 0.739 0.035 0.094 0.233 0.172 0.375 0.168 0.323-0.011 0.436-0.714 0.503-0.925 0.018-0.040 0.078-0.286 0.135-0.535l0.039-0.2c0.035-0.151 0.155-0.865 0.287-0.955 0.125-0.090 0.642 0.009 0.85-0.072 0.141-0.056 0.237-0.232 0.217-0.408-0.032-0.306-0.814-0.098-0.951-0.261zM29.901 5.981c-0.039-0.422 0.267-1.195-0.252-1.153-0.299 0.027-0.327 0.48-0.378 0.842-0.067 0.45-0.171 0.832-0.262 1.272-0.087 0.396-0.207 0.802 0.262 0.754 0.175-0.014 0.443-0.545 0.571-0.725 0.224-0.298 0.179-0.297 0.542-0.683 0.146-0.165 0.299-0.393 0.498-0.398 0.009 0.29-0.042 0.465-0.112 0.767-0.077 0.307-0.144 0.641-0.158 0.955 0.122 0.244 0.566 0.188 0.671-0.020 0.033-0.068 0.024-0.223 0.036-0.337 0.055-0.464 0.291-1.173 0.299-1.616 0.002-0.206-0.075-0.452-0.146-0.505-0.231-0.192-0.497-0.046-0.676 0.058-0.23 0.145-0.427 0.318-0.592 0.519l-0.003 0.004c-0.081 0.101-0.172 0.168-0.299 0.265zM32.769 7.151c0.158-0.035 0.427-0.084 0.631-0.121 0.301-0.052 0.457-0.126 0.754-0.197 0.178-0.039 0.321-0.243 0.327-0.416 0.012-0.115-0.050-0.379-0.087-0.46-0.206-0.672-0.709-0.911-1.355-0.76-0.262 0.049-0.575 0.268-0.758 0.538-0.233 0.259-0.345 0.652-0.282 1.212 0.117 0.54 0.263 0.742 0.757 1.006 0.306 0.206 0.939 0.189 1.288-0.012 0.117-0.078 0.17-0.272 0.046-0.433-0.227-0.172-0.441 0.153-0.858 0.019-0.274-0.087-0.433-0.161-0.463-0.377zM32.896 5.948c0.435-0.282 0.814-0.217 0.929 0.284-0.043 0.105-0.239 0.194-0.389 0.21-0.228 0.021-0.63 0.107-0.742 0.076-0.039-0.12 0.022-0.455 0.202-0.571zM35.622 7.451c0.158-0.035 0.427-0.084 0.631-0.121 0.301-0.052 0.457-0.126 0.754-0.197 0.178-0.039 0.321-0.243 0.327-0.416 0.012-0.115-0.050-0.379-0.087-0.46-0.206-0.672-0.709-0.911-1.355-0.76-0.262 0.049-0.575 0.268-0.758 0.538-0.233 0.259-0.345 0.652-0.282 1.212 0.117 0.54 0.263 0.742 0.757 1.006 0.306 0.206 0.939 0.189 1.288-0.012 0.117-0.078 0.17-0.272 0.046-0.433-0.227-0.172-0.441 0.153-0.858 0.019-0.274-0.087-0.434-0.161-0.463-0.377zM35.749 6.248c0.435-0.282 0.814-0.217 0.929 0.284-0.043 0.105-0.239 0.194-0.389 0.21-0.228 0.021-0.63 0.107-0.742 0.076-0.039-0.12 0.022-0.455 0.202-0.571zM39.37 9.228c0.293 0.095 0.485-0.020 0.551-0.283 0.122-0.489 0.152-1.2 0.239-1.841 0.080-0.462 0.196-1.009 0.286-1.495 0.077-0.366 0.291-1.051-0.029-1.136-0.098-0.043-0.313-0.027-0.366 0.052-0.181 0.309-0.129 1.228-0.418 1.404-0.407-0.043-0.769-0.029-1.112 0.108-0.31 0.135-0.538 0.349-0.715 0.62-0.144 0.21-0.253 0.572-0.199 0.912 0.056 0.327 0.36 0.675 0.624 0.857 0.289 0.191 0.628 0.208 0.97 0.32 0.069 0.143 0.029 0.396 0.168 0.481zM39.447 7.389c-0.040 0.195-0.076 0.603-0.155 0.737-0.306 0.038-0.749-0.22-0.908-0.482-0.263-0.439 0.114-1.030 0.59-1.025 0.296 0.005 0.456-0.055 0.539 0.076 0.030 0.138-0.026 0.493-0.067 0.695zM9.273 8.98c-0.207 0.011-0.316 0.070-0.481 0.168-0.262 0.165-0.301 0.232-0.472 0.446-0.323 0.384-0.47 1.109-0.182 1.609 0.165 0.21 0.512 0.453 0.833 0.518 0.384 0.085 0.688 0.008 0.946-0.126 0.453-0.261 0.797-0.721 0.779-1.231 0.060-0.817-0.484-1.454-1.424-1.385zM8.673 10.584c-0.021-0.408 0.347-0.967 0.697-0.995 0.454-0.036 0.786 0.482 0.615 1.004-0.087 0.28-0.387 0.494-0.59 0.53-0.432 0.064-0.704-0.222-0.722-0.539zM11.883 10.522c-0.039-0.422 0.267-1.194-0.252-1.152-0.299 0.027-0.327 0.48-0.378 0.842-0.066 0.45-0.171 0.832-0.262 1.273-0.087 0.396-0.207 0.802 0.262 0.754 0.175-0.014 0.443-0.545 0.571-0.725 0.224-0.299 0.18-0.297 0.542-0.683 0.146-0.165 0.299-0.393 0.499-0.398 0.008 0.29-0.043 0.465-0.112 0.767-0.078 0.307-0.145 0.641-0.159 0.955 0.123 0.244 0.566 0.187 0.672-0.020 0.033-0.067 0.023-0.223 0.035-0.337 0.055-0.464 0.291-1.173 0.299-1.616 0.003-0.206-0.075-0.452-0.146-0.505-0.231-0.192-0.497-0.046-0.675 0.058-0.231 0.145-0.427 0.318-0.592 0.519l-0.003 0.004c-0.081 0.101-0.172 0.169-0.298 0.265zM14.752 11.692c0.158-0.035 0.427-0.084 0.63-0.12 0.302-0.052 0.457-0.126 0.754-0.197 0.178-0.039 0.322-0.243 0.327-0.416 0.012-0.114-0.050-0.379-0.087-0.459-0.206-0.672-0.709-0.911-1.355-0.76-0.263 0.049-0.575 0.267-0.758 0.538-0.233 0.259-0.346 0.652-0.282 1.212 0.117 0.54 0.263 0.742 0.757 1.006 0.306 0.206 0.939 0.189 1.288-0.012 0.118-0.078 0.171-0.272 0.046-0.433-0.226-0.171-0.441 0.154-0.858 0.020-0.274-0.087-0.433-0.162-0.462-0.377zM14.879 10.49c0.435-0.283 0.815-0.217 0.929 0.284-0.043 0.105-0.24 0.193-0.389 0.21-0.228 0.021-0.629 0.107-0.742 0.076-0.039-0.12 0.022-0.455 0.202-0.571zM20.318 10.212c-0.025-0.44 0.108-0.6 0.188-0.933 0.081-0.217 0.137-0.378-0.184-0.393-0.506-0.027-0.499 0.398-0.595 0.761-0.041 0.144-0.113 0.523-0.229 0.587-0.109 0.059-0.548 0.007-0.685 0.025-0.133 0.037-0.254 0.153-0.286 0.272-0.043 0.105-0.019 0.306 0.107 0.391 0.175 0.108 0.642-0.042 0.764 0.138-0.064 0.367-0.102 0.658-0.165 0.896-0.018 0.114-0.146 0.59-0.177 0.702-0.023 0.101-0.221 0.633-0.193 0.739 0.035 0.094 0.233 0.172 0.375 0.168 0.323-0.011 0.435-0.713 0.503-0.925 0.032-0.125 0.147-0.608 0.174-0.735 0.035-0.151 0.155-0.865 0.287-0.954 0.125-0.090 0.643 0.010 0.85-0.071 0.142-0.056 0.237-0.233 0.217-0.408-0.032-0.306-0.814-0.098-0.951-0.261zM21.986 11.063c0.234 0.044 0.531-0.215 1.017-0.241 0.144 0.035 0.326 0.389 0.144 0.588-0.115 0.117-0.658 0.021-0.981 0.084-0.184 0.039-0.421 0.149-0.519 0.229-0.155 0.125-0.344 0.331-0.309 0.676 0.004 0.148 0.117 0.295 0.221 0.409 0.249 0.329 0.523 0.473 0.883 0.659 0.104 0.056 0.36 0.128 0.47 0.12 0.154-0.003 0.344-0.215 0.402-0.337 0.138-0.333 0.238-0.677 0.347-1.038 0.085-0.32 0.229-0.768 0.201-1.182-0.016-0.336-0.201-0.665-0.421-0.772-0.392-0.131-0.718-0.030-1.141 0.131-0.213 0.068-0.467 0.163-0.462 0.421 0.007 0.117 0.031 0.197 0.147 0.254zM22.586 12.033c0.122 0.006 0.367 0 0.442 0.079-0.023 0.223-0.089 0.666-0.292 0.696-0.301-0.077-0.758-0.26-0.725-0.63 0.109-0.117 0.332-0.158 0.575-0.145zM25.146 10.771c-0.016-0.214 0.019-0.365 0.063-0.598 0.056-0.232 0.171-0.593 0.096-0.794-0.094-0.267-0.471-0.23-0.599-0.050-0.113 0.213-0.171 0.703-0.222 0.948-0.123 0.566-0.28 1.193-0.395 1.857-0.051 0.304-0.177 0.709-0.175 0.992 0 0.238 0.067 0.522 0.369 0.586 0.195 0.046 0.731-0.103 0.892-0.164 0.302-0.108 0.564-0.252 0.799-0.43l-0.007 0.005c0.336-0.261 0.718-0.646 0.751-1.144 0.029-0.525-0.393-0.858-0.836-0.989-0.25-0.071-0.581-0.048-0.736-0.219zM24.716 12.283c0.046-0.317 0.129-0.675 0.298-0.812 0.44-0.025 1.023 0.191 1.010 0.55-0.012 0.237-0.341 0.486-0.517 0.634-0.185 0.167-0.74 0.424-0.931 0.404l0.139-0.777zM29.561 12.38c-0.039-0.422 0.267-1.195-0.252-1.153-0.299 0.027-0.327 0.48-0.378 0.842-0.066 0.45-0.171 0.832-0.262 1.272-0.087 0.396-0.207 0.802 0.262 0.755 0.175-0.014 0.443-0.545 0.571-0.725 0.224-0.298 0.179-0.297 0.542-0.683 0.146-0.165 0.299-0.393 0.499-0.398 0.008 0.29-0.043 0.465-0.113 0.767-0.077 0.307-0.144 0.641-0.158 0.955 0.122 0.244 0.566 0.188 0.672-0.020 0.032-0.067 0.023-0.223 0.035-0.337 0.055-0.464 0.291-1.173 0.299-1.616 0.002-0.206-0.075-0.452-0.146-0.505-0.231-0.192-0.497-0.046-0.675 0.058-0.231 0.145-0.427 0.318-0.592 0.519l-0.003 0.004c-0.081 0.101-0.172 0.168-0.298 0.265zM32.856 11.459c-0.207 0.011-0.316 0.069-0.481 0.168-0.262 0.165-0.301 0.232-0.472 0.446-0.324 0.384-0.47 1.109-0.182 1.609 0.165 0.21 0.512 0.453 0.833 0.518 0.093 0.023 0.199 0.036 0.309 0.036 0.234 0 0.453-0.060 0.645-0.165l-0.007 0.004c0.453-0.261 0.797-0.721 0.779-1.231 0.060-0.817-0.484-1.454-1.424-1.385zM32.256 13.062c-0.022-0.408 0.346-0.967 0.697-0.995 0.454-0.036 0.786 0.482 0.615 1.004-0.087 0.28-0.387 0.494-0.59 0.53-0.432 0.064-0.704-0.222-0.722-0.539zM35.377 14.034c-0.094-0.151-0.075-0.638-0.066-0.966 0.011-0.231 0.156-0.878 0.088-1.020-0.080-0.163-0.414-0.224-0.558-0.078-0.194 0.192-0.194 1.228-0.186 1.461 0.021 0.35 0.026 0.788 0.15 1.026 0.164 0.339 0.641 0.325 0.916 0.167 0.144-0.088 0.467-0.524 0.503-0.501 0.049 0.024 0.2 0.549 0.298 0.649 0.208 0.221 0.56 0.129 0.838-0.015 0.635-0.345 1.264-1.437 1.326-2.512-0.122-0.251-0.48-0.212-0.605-0.064-0.117 0.2-0.209 0.77-0.344 1.135-0.145 0.397-0.602 0.954-0.746 0.919-0.163-0.043-0.183-0.959-0.348-1.221-0.1-0.152-0.27-0.125-0.404-0.075-0.219 0.132-0.502 1.035-0.861 1.094z"></path>
</symbol>
<symbol id="icon-group1" viewBox="0 0 43 32">
<path d="M23.49 11.925c-0.197-0.723 0.119-1.28 0.478-1.755 0.518-0.664 1.080-1.25 1.697-1.773l0.017-0.014c2.94-2.345 6.336-3.224 10.051-2.84 0.944 0.101 1.889 0.339 2.937 0.542-0.206-0.977-0.992-1.708-1.259-2.705 0.444 0.030 0.645 0.323 0.818 0.561 0.517 0.696 1.2 1.671 1.864 2.659l0.211 0.333c0.319 0.49 0.273 0.77-0.217 1.021-1.014 0.536-2.092 0.709-3.208 0.507-0.041-0.013-0.083-0.095-0.159-0.21 0.513-0.812 1.577-0.24 2.235-0.868-1.312-0.789-2.748-0.981-4.185-1.037-1.504-0.055-2.986 0.033-4.425 0.477-1.411 0.43-2.663 1.139-3.886 1.97-1.237 0.805-2.192 1.86-2.968 3.132z"></path>
<path d="M8.949 17.927c-0.333 0.002-0.65 0.074-0.897 0.319-0.097 0.101-0.156 0.366-0.16 0.526-0.009 0.259 0.227 0.487 0.418 0.661 0.158 0.14 0.551 0.398 0.487 0.656-0.419 0.462-0.607-0.039-0.951 0.067-0.064 0.018-0.144 0.078-0.162 0.131-0.088 0.306-0.010 0.394 0.496 0.564 0.215 0.072 0.555 0.058 0.739-0.039 0.254-0.134 0.477-0.37 0.524-0.704 0.060-0.451-0.298-0.747-0.527-0.969-0.050-0.048-0.351-0.241-0.321-0.41 0.033-0.194 0.234-0.228 0.56-0.102 0.116 0.068 0.374 0.311 0.507 0.226 0.065-0.030 0.212-0.138 0.21-0.299-0.002-0.217-0.224-0.394-0.458-0.517-0.117-0.061-0.433-0.114-0.464-0.11zM11.303 18.174c-0.199 0.010-0.303 0.067-0.462 0.161-0.251 0.159-0.288 0.223-0.452 0.428-0.31 0.368-0.451 1.063-0.174 1.543 0.158 0.202 0.491 0.434 0.799 0.497 0.368 0.082 0.659 0.008 0.907-0.121 0.434-0.251 0.764-0.691 0.747-1.18 0.058-0.784-0.465-1.394-1.366-1.328zM10.727 19.712c-0.021-0.391 0.332-0.928 0.668-0.954 0.435-0.035 0.754 0.462 0.59 0.963-0.083 0.269-0.37 0.473-0.565 0.509-0.414 0.061-0.675-0.213-0.693-0.517zM13.971 16.961c-0.429 0.085-0.457 0.767-0.553 1.269-0.138 0.726-0.268 1.262-0.433 2.003-0.061 0.29-0.334 1.063-0.139 1.201 0.165 0.128 0.446-0.021 0.54-0.208 0.062-0.123 0.174-0.599 0.211-0.774 0.174-0.889 0.354-1.666 0.519-2.592 0.068-0.357 0.295-0.981-0.146-0.898zM14.992 18.871c-0.529-0.080-0.625 0.366-0.699 0.834-0.025 0.182-0.075 0.603-0.073 0.813 0.007 0.458 0.283 0.709 0.604 0.823 0.882 0.241 1.276-0.156 1.543-0.825 0.091-0.22 0.16-0.475 0.195-0.741l0.002-0.016c0.037-0.292 0.079-0.807-0.088-0.928-0.103-0.079-0.408-0.049-0.476 0.129-0.070 0.196-0.079 0.695-0.132 0.961-0.066 0.332-0.289 0.877-0.538 0.888-0.725 0.084-0.403-0.919-0.304-1.396 0.045-0.187 0.118-0.419-0.036-0.541zM18.543 19.004c-0.024-0.422 0.103-0.575 0.181-0.894 0.077-0.208 0.131-0.363-0.177-0.377-0.485-0.026-0.478 0.382-0.57 0.73-0.039 0.138-0.108 0.501-0.22 0.563-0.105 0.057-0.525 0.007-0.657 0.024-0.127 0.036-0.244 0.147-0.274 0.261-0.041 0.101-0.018 0.294 0.103 0.375 0.168 0.104 0.615-0.040 0.733 0.132-0.061 0.352-0.097 0.631-0.158 0.86-0.018 0.11-0.14 0.565-0.17 0.673-0.022 0.096-0.212 0.607-0.185 0.709 0.034 0.090 0.224 0.165 0.359 0.161 0.309-0.011 0.417-0.684 0.482-0.887 0.031-0.12 0.141-0.583 0.167-0.704 0.033-0.145 0.149-0.829 0.275-0.915 0.12-0.086 0.616 0.009 0.815-0.069 0.136-0.053 0.227-0.223 0.208-0.391-0.031-0.294-0.78-0.094-0.912-0.25zM20.415 18.404c-0.168 0.019-0.334 0.181-0.334 0.366-0.002 0.37 0.662 0.335 0.695-0.038 0.017-0.22-0.142-0.348-0.361-0.328zM20.251 19.436c-0.295-0.006-0.422 0.32-0.498 0.627-0.091 0.397-0.192 0.831-0.285 1.247-0.056 0.235-0.136 0.473-0.044 0.587 0.131 0.168 0.522 0.086 0.626-0.076 0.075-0.122 0.092-0.466 0.127-0.684 0.060-0.389 0.157-0.73 0.261-1.071 0.053-0.155 0.125-0.302 0.114-0.383-0.013-0.162-0.214-0.251-0.301-0.248zM21.989 19.298c-0.199 0.010-0.303 0.067-0.461 0.161-0.251 0.159-0.289 0.223-0.452 0.427-0.31 0.368-0.451 1.063-0.174 1.543 0.158 0.202 0.491 0.434 0.799 0.498 0.368 0.082 0.66 0.007 0.907-0.121 0.434-0.25 0.764-0.691 0.747-1.18 0.058-0.784-0.465-1.394-1.366-1.328zM21.414 20.836c-0.021-0.391 0.332-0.928 0.668-0.954 0.436-0.034 0.754 0.462 0.59 0.963-0.084 0.269-0.371 0.473-0.565 0.509-0.414 0.061-0.675-0.213-0.693-0.517zM24.492 20.777c-0.038-0.405 0.256-1.145-0.242-1.106-0.286 0.025-0.313 0.461-0.363 0.807-0.064 0.431-0.164 0.797-0.252 1.22-0.083 0.38-0.198 0.769 0.251 0.724 0.168-0.013 0.425-0.523 0.548-0.695 0.215-0.286 0.172-0.284 0.519-0.655 0.14-0.158 0.287-0.377 0.478-0.381 0.008 0.278-0.041 0.446-0.108 0.735-0.074 0.295-0.139 0.615-0.152 0.916 0.117 0.235 0.543 0.18 0.644-0.019 0.032-0.064 0.022-0.213 0.034-0.323 0.053-0.445 0.279-1.124 0.286-1.55 0.002-0.197-0.071-0.433-0.14-0.483-0.221-0.184-0.477-0.044-0.647 0.055-0.221 0.139-0.41 0.305-0.568 0.497l-0.003 0.004c-0.078 0.096-0.165 0.162-0.286 0.254zM29.279 21.687c0.193-0.078 0.419 0.001 0.656-0.018 0.224-0.020 0.312-0.443 0.047-0.563-0.295-0.124-0.41-0.031-0.597-0.131-0.081-0.169 0.070-0.906 0.126-1.085 0.093-0.293 0.244-0.85 0.53-0.821 0.171 0.018 0.19 0.248 0.232 0.376s0.078 0.317 0.193 0.335c0.136 0.057 0.349 0.031 0.416-0.141 0.061-0.111 0.064-0.382-0.032-0.633-0.131-0.341-0.382-0.595-0.813-0.548-0.443 0.046-0.702 0.339-0.931 0.754-0.205 0.367-0.289 0.692-0.387 1.156-0.032 0.126-0.023 0.393-0.085 0.46-0.077 0.084-0.006 0.055-0.178 0.043-0.159-0.011-0.346 0.062-0.386 0.206-0.025 0.066-0.059 0.148 0.017 0.249 0.191 0.236 0.186 0.112 0.477 0.217 0.048 0.363-0.126 0.968-0.075 1.306 0.034 0.207 0.477 0.273 0.588 0.037 0.13-0.295 0.104-1.044 0.2-1.201zM31.782 20.327c-0.199 0.010-0.303 0.067-0.461 0.161-0.251 0.159-0.289 0.223-0.452 0.427-0.31 0.368-0.451 1.063-0.174 1.543 0.158 0.202 0.491 0.434 0.799 0.498 0.368 0.082 0.66 0.007 0.907-0.121 0.434-0.25 0.764-0.691 0.747-1.18 0.058-0.784-0.465-1.394-1.366-1.328zM31.207 21.865c-0.021-0.391 0.332-0.928 0.668-0.954 0.435-0.034 0.754 0.462 0.59 0.963-0.084 0.269-0.371 0.473-0.565 0.509-0.414 0.061-0.675-0.213-0.693-0.517zM34.386 20.607c-0.056-0.069-0.14-0.114-0.234-0.117h-0.001c-0.331-0.022-0.342 0.199-0.444 0.644-0.107 0.488-0.212 1.311-0.307 1.806-0.032 0.126-0.071 0.264-0.054 0.34 0.023 0.076 0.143 0.163 0.235 0.179 0.231 0.036 0.348 0.036 0.43-0.165 0.1-0.249 0.167-0.939 0.215-1.224 0.011-0.103 0.456-0.341 0.714-0.387 0.107-0.026 0.377-0.066 0.508-0.082 0.125-0.018 0.366-0.135 0.355-0.382-0.012-0.118-0.15-0.213-0.277-0.239-0.217-0.053-0.477 0.018-0.648 0.061-0.159 0.045-0.387 0.219-0.534 0.154 0.033-0.2 0.089-0.373 0.043-0.587zM3.153 26.864c0.281 0.092 0.465-0.019 0.528-0.271 0.117-0.469 0.146-1.151 0.229-1.766 0.077-0.442 0.188-0.967 0.274-1.433 0.074-0.35 0.279-1.007-0.027-1.089-0.095-0.041-0.3-0.025-0.351 0.050-0.174 0.296-0.124 1.178-0.401 1.346-0.39-0.041-0.737-0.028-1.066 0.104-0.297 0.129-0.516 0.334-0.686 0.594-0.139 0.202-0.243 0.548-0.191 0.875 0.053 0.314 0.345 0.647 0.598 0.822 0.277 0.184 0.602 0.199 0.931 0.308 0.066 0.137 0.028 0.38 0.161 0.461zM3.227 25.101c-0.039 0.187-0.074 0.579-0.149 0.707-0.294 0.037-0.718-0.211-0.871-0.462-0.252-0.421 0.11-0.988 0.566-0.983 0.283 0.005 0.437-0.053 0.517 0.073 0.029 0.133-0.025 0.473-0.064 0.666zM5.237 22.98c-0.169 0.019-0.334 0.181-0.335 0.366-0.002 0.37 0.662 0.335 0.695-0.038 0.017-0.221-0.142-0.348-0.36-0.328zM5.073 24.011c-0.295-0.007-0.423 0.32-0.498 0.626-0.091 0.398-0.192 0.831-0.285 1.247-0.056 0.235-0.136 0.473-0.044 0.588 0.131 0.168 0.522 0.085 0.626-0.076 0.075-0.122 0.092-0.466 0.127-0.684 0.060-0.389 0.157-0.73 0.261-1.071 0.053-0.155 0.124-0.302 0.114-0.383-0.014-0.162-0.214-0.251-0.301-0.248zM6.853 23.878c-0.333 0.002-0.65 0.074-0.897 0.319-0.097 0.101-0.156 0.366-0.16 0.526-0.009 0.259 0.227 0.487 0.418 0.661 0.158 0.14 0.551 0.397 0.487 0.656-0.419 0.462-0.607-0.039-0.951 0.067-0.064 0.018-0.144 0.078-0.162 0.131-0.088 0.305-0.011 0.394 0.496 0.564 0.215 0.072 0.555 0.058 0.739-0.039 0.254-0.134 0.477-0.37 0.524-0.704 0.060-0.45-0.298-0.747-0.527-0.969-0.050-0.048-0.351-0.24-0.321-0.41 0.033-0.194 0.234-0.228 0.56-0.102 0.116 0.068 0.374 0.311 0.507 0.226 0.065-0.031 0.212-0.139 0.21-0.299-0.002-0.216-0.224-0.394-0.458-0.517-0.117-0.061-0.433-0.113-0.464-0.11zM10.19 26.567c-0.104-0.363-0.394-0.189-0.747-0.177-0.477 0.018-0.743-0.27-0.818-0.617-0.069-0.341 0.355-0.734 0.8-0.743 0.167-0.001 0.325 0.078 0.537 0.063 0.167-0.007 0.341-0.192 0.311-0.436-0.032-0.219-0.654-0.297-0.852-0.293-0.53 0-0.989 0.254-1.264 0.7-0.131 0.245-0.238 0.623-0.182 0.913 0.154 0.584 0.555 0.947 1.182 1.025 0.566 0.072 1.123-0.123 1.033-0.434zM11.859 24.404c-0.199 0.010-0.303 0.067-0.461 0.161-0.251 0.159-0.289 0.223-0.452 0.427-0.31 0.369-0.451 1.063-0.174 1.543 0.158 0.202 0.491 0.434 0.8 0.498 0.368 0.082 0.659 0.007 0.907-0.121 0.434-0.251 0.764-0.691 0.747-1.18 0.058-0.784-0.464-1.394-1.366-1.328zM11.284 25.941c-0.021-0.391 0.332-0.928 0.668-0.954 0.436-0.034 0.754 0.462 0.59 0.963-0.084 0.269-0.371 0.473-0.565 0.509-0.414 0.061-0.675-0.213-0.693-0.517zM14.429 26.655c-0.011-0.31-0.064-0.803-0.106-1.109-0.021-0.157-0.047-0.493-0.117-0.593-0.124-0.173-0.438-0.114-0.55 0.010-0.028 0.034-0.103 0.162-0.061 0.345 0.004 0.321 0.247 1.174 0.33 1.738 0.033 0.275 0.046 0.504 0.231 0.567 0.302 0.124 0.572-0.28 0.723-0.486 0.499-0.694 0.7-1.019 0.953-1.369 0.138-0.195 0.331-0.329 0.268-0.614-0.043-0.239-0.287-0.32-0.478-0.21-0.223 0.125-0.321 0.416-0.49 0.671-0.234 0.29-0.459 0.729-0.703 1.049zM16.857 26.978c0.152-0.034 0.409-0.081 0.605-0.116 0.289-0.050 0.438-0.121 0.723-0.189 0.171-0.037 0.308-0.232 0.313-0.399 0.011-0.11-0.048-0.363-0.083-0.441-0.198-0.644-0.679-0.874-1.3-0.729-0.252 0.047-0.551 0.257-0.727 0.516-0.224 0.248-0.331 0.626-0.27 1.163 0.112 0.518 0.253 0.711 0.726 0.965 0.294 0.197 0.9 0.181 1.235-0.012 0.113-0.075 0.163-0.261 0.044-0.415-0.217-0.165-0.423 0.147-0.823 0.018-0.263-0.083-0.416-0.155-0.444-0.361zM16.978 25.824c0.417-0.271 0.781-0.208 0.891 0.273-0.041 0.101-0.229 0.186-0.373 0.202-0.218 0.020-0.604 0.103-0.711 0.073-0.037-0.115 0.021-0.436 0.193-0.547zM19.756 25.24c-0.056-0.069-0.14-0.114-0.234-0.117h-0.001c-0.331-0.022-0.342 0.199-0.444 0.644-0.107 0.489-0.212 1.311-0.307 1.806-0.032 0.126-0.071 0.264-0.054 0.34 0.023 0.076 0.143 0.163 0.234 0.179 0.231 0.036 0.348 0.036 0.431-0.164 0.1-0.249 0.167-0.939 0.215-1.224 0.011-0.104 0.456-0.341 0.713-0.388 0.108-0.026 0.377-0.066 0.509-0.082 0.125-0.018 0.366-0.134 0.355-0.382-0.012-0.118-0.15-0.213-0.277-0.239-0.217-0.054-0.477 0.018-0.649 0.061-0.159 0.045-0.387 0.218-0.534 0.153 0.034-0.2 0.089-0.373 0.044-0.587zM23.561 26.349c0.224 0.042 0.509-0.206 0.975-0.231 0.139 0.033 0.313 0.373 0.138 0.564-0.11 0.112-0.631 0.020-0.94 0.080-0.177 0.037-0.403 0.142-0.498 0.219-0.149 0.12-0.33 0.317-0.296 0.647 0.003 0.142 0.112 0.283 0.212 0.393 0.238 0.315 0.501 0.454 0.846 0.632 0.099 0.053 0.345 0.123 0.451 0.115 0.148-0.003 0.33-0.206 0.386-0.323 0.132-0.319 0.228-0.649 0.333-0.995 0.081-0.307 0.219-0.736 0.193-1.134-0.015-0.323-0.192-0.637-0.403-0.739-0.376-0.126-0.688-0.029-1.093 0.126-0.204 0.065-0.448 0.157-0.444 0.403 0.007 0.112 0.029 0.189 0.141 0.243zM24.136 27.28c0.117 0.006 0.352 0 0.424 0.075-0.022 0.214-0.085 0.639-0.28 0.668-0.288-0.074-0.726-0.249-0.695-0.604 0.104-0.113 0.318-0.152 0.551-0.14zM29.042 26.278c-0.023-0.422 0.104-0.576 0.181-0.894 0.077-0.208 0.131-0.363-0.177-0.377-0.484-0.026-0.478 0.382-0.57 0.73-0.039 0.138-0.109 0.501-0.22 0.563-0.105 0.057-0.525 0.007-0.657 0.024-0.127 0.036-0.244 0.147-0.274 0.261-0.042 0.101-0.019 0.294 0.102 0.375 0.168 0.104 0.615-0.040 0.733 0.133-0.061 0.351-0.097 0.631-0.158 0.859-0.018 0.11-0.14 0.565-0.17 0.673-0.022 0.096-0.212 0.608-0.185 0.709 0.034 0.090 0.224 0.165 0.359 0.161 0.31-0.011 0.418-0.684 0.482-0.887 0.017-0.038 0.075-0.275 0.13-0.513l0.037-0.192c0.034-0.145 0.149-0.83 0.275-0.915 0.12-0.086 0.616 0.009 0.815-0.069 0.135-0.053 0.227-0.223 0.208-0.391-0.031-0.293-0.78-0.094-0.912-0.25zM31.027 26.425c-0.056-0.069-0.14-0.114-0.234-0.117h-0.001c-0.331-0.022-0.342 0.199-0.444 0.644-0.107 0.489-0.212 1.311-0.307 1.807-0.032 0.126-0.071 0.264-0.054 0.34 0.023 0.077 0.143 0.163 0.234 0.179 0.231 0.037 0.348 0.037 0.431-0.164 0.1-0.249 0.167-0.939 0.215-1.224 0.011-0.104 0.455-0.341 0.713-0.388 0.108-0.025 0.377-0.065 0.509-0.082 0.125-0.018 0.366-0.134 0.355-0.382-0.012-0.118-0.15-0.213-0.277-0.239-0.216-0.053-0.477 0.018-0.648 0.061-0.159 0.045-0.387 0.219-0.535 0.153 0.034-0.2 0.089-0.373 0.044-0.587zM33.212 28.697c0.152-0.033 0.41-0.080 0.605-0.115 0.289-0.050 0.438-0.121 0.723-0.189 0.171-0.038 0.308-0.233 0.313-0.399 0.011-0.11-0.048-0.363-0.083-0.441-0.198-0.644-0.679-0.874-1.3-0.729-0.252 0.048-0.551 0.257-0.727 0.516-0.224 0.248-0.331 0.625-0.27 1.163 0.112 0.517 0.252 0.711 0.725 0.964 0.294 0.198 0.9 0.181 1.235-0.012 0.113-0.075 0.163-0.26 0.044-0.415-0.217-0.164-0.423 0.147-0.823 0.018-0.263-0.083-0.416-0.155-0.444-0.361zM33.333 27.543c0.417-0.271 0.781-0.208 0.891 0.273-0.041 0.1-0.229 0.185-0.373 0.202-0.218 0.020-0.604 0.103-0.711 0.073-0.037-0.115 0.021-0.436 0.193-0.547zM36.010 28.158c-0.038-0.405 0.256-1.146-0.242-1.106-0.287 0.025-0.314 0.461-0.363 0.807-0.064 0.431-0.164 0.797-0.252 1.22-0.083 0.38-0.198 0.769 0.251 0.723 0.168-0.013 0.425-0.523 0.548-0.695 0.216-0.286 0.172-0.285 0.52-0.655 0.14-0.158 0.286-0.377 0.478-0.382 0.008 0.278-0.040 0.446-0.108 0.735-0.075 0.295-0.139 0.615-0.152 0.916 0.117 0.234 0.542 0.18 0.644-0.019 0.032-0.064 0.022-0.213 0.034-0.323 0.053-0.445 0.278-1.125 0.286-1.55 0.002-0.197-0.072-0.434-0.14-0.484-0.222-0.184-0.477-0.044-0.648 0.056-0.221 0.139-0.41 0.305-0.568 0.497l-0.003 0.004c-0.078 0.096-0.165 0.161-0.286 0.254zM39.618 30.697c0.281 0.091 0.465-0.019 0.528-0.272 0.117-0.469 0.146-1.151 0.229-1.765 0.078-0.443 0.188-0.967 0.274-1.433 0.074-0.351 0.278-1.008-0.028-1.089-0.095-0.041-0.3-0.025-0.351 0.050-0.173 0.296-0.124 1.178-0.401 1.346-0.391-0.041-0.738-0.028-1.066 0.104-0.298 0.129-0.517 0.334-0.686 0.594-0.139 0.202-0.243 0.548-0.191 0.875 0.053 0.314 0.345 0.647 0.599 0.822 0.277 0.183 0.602 0.199 0.93 0.308 0.066 0.136 0.028 0.379 0.161 0.461zM39.692 28.933c-0.039 0.188-0.074 0.579-0.149 0.707-0.294 0.037-0.718-0.211-0.871-0.462-0.252-0.421 0.11-0.988 0.566-0.983 0.283 0.005 0.437-0.053 0.517 0.073 0.029 0.133-0.025 0.473-0.064 0.666z"></path>
</symbol>
<symbol id="icon-cross" viewBox="0 0 32 32">
<path fill="#fff" style="fill: var(--color1, #fff)" d="M3.762 3.129l1.77-1.538c0.49-0.426 1.232-0.374 1.658 0.116l21.556 24.798c0.426 0.49 0.374 1.232-0.116 1.658l-1.77 1.538c-0.49 0.426-1.232 0.374-1.658-0.116l-21.556-24.798c-0.426-0.49-0.374-1.232 0.116-1.658z"></path>
<path fill="#fff" style="fill: var(--color1, #fff)" d="M30.251 4.98l-1.538-1.77c-0.426-0.49-1.168-0.542-1.658-0.116l-24.797 21.556c-0.49 0.426-0.542 1.168-0.116 1.658l1.538 1.77c0.426 0.49 1.168 0.542 1.658 0.116l24.797-21.556c0.49-0.426 0.542-1.168 0.116-1.658z"></path>
</symbol>
<symbol id="icon-group3" viewBox="0 0 43 32">
<path fill="#fff" style="fill: var(--color1, #fff)" d="M19.549 18.828c0.215 0.788-0.13 1.395-0.52 1.913-0.564 0.724-1.177 1.362-1.849 1.932l-0.019 0.015c-3.204 2.555-6.904 3.512-10.951 3.094-1.028-0.11-2.059-0.369-3.199-0.59 0.224 1.064 1.080 1.861 1.372 2.947-0.484-0.033-0.703-0.352-0.891-0.611-0.563-0.758-1.307-1.82-2.031-2.897l-0.23-0.363c-0.347-0.534-0.297-0.84 0.236-1.113 1.105-0.584 2.28-0.773 3.496-0.553 0.045 0.014 0.090 0.103 0.173 0.229-0.559 0.885-1.718 0.261-2.434 0.946 1.429 0.86 2.995 1.069 4.559 1.13 1.639 0.060 3.254-0.037 4.821-0.521 1.538-0.468 2.902-1.24 4.235-2.146 1.348-0.877 2.388-2.026 3.233-3.413z"></path>
<path fill="#fff" style="fill: var(--color1, #fff)" d="M14.145 1.274c-0.218 0.065-0.409 0.157-0.58 0.274l0.007-0.005c-0.406 0.287-0.704 0.813-0.553 1.488 0.099 0.461 0.427 0.791 0.866 0.972 0.172 0.085 0.559 0.247 0.632 0.443 0.089 0.245-0.090 0.475-0.232 0.547-0.279 0.159-0.608 0.030-0.93 0.084-0.199 0.033-0.327 0.107-0.362 0.245-0.011 0.036-0.017 0.076-0.017 0.119 0 0.085 0.025 0.165 0.069 0.231l-0.001-0.002c0.196 0.249 0.635 0.161 0.909 0.176 0.495-0.042 0.871-0.285 1.063-0.521 0.123-0.148 0.256-0.45 0.296-0.634 0.092-0.427-0.131-0.861-0.392-1.070-0.379-0.296-1.108-0.332-1.169-1.037-0.021-0.244 0.277-0.522 0.615-0.54 0.223-0.010 0.34 0.224 0.414 0.352 0.085 0.157 0.17 0.435 0.335 0.458 0.259 0.034 0.463-0.314 0.437-0.512 0-0.060-0.093-0.332-0.155-0.439-0.14-0.526-0.895-0.767-1.251-0.629zM16.347 3.637c0.244 0.046 0.554-0.224 1.061-0.251 0.151 0.036 0.341 0.405 0.151 0.614-0.12 0.122-0.688 0.022-1.024 0.087-0.192 0.041-0.44 0.156-0.543 0.239-0.161 0.131-0.359 0.346-0.323 0.706 0.004 0.155 0.122 0.309 0.231 0.427 0.26 0.343 0.546 0.494 0.923 0.689 0.108 0.058 0.376 0.134 0.491 0.126 0.162-0.003 0.36-0.224 0.42-0.352 0.144-0.348 0.249-0.707 0.363-1.085 0.089-0.334 0.239-0.802 0.21-1.235-0.017-0.352-0.209-0.694-0.439-0.806-0.409-0.137-0.75-0.032-1.191 0.137-0.223 0.071-0.489 0.171-0.483 0.44 0.008 0.122 0.032 0.205 0.154 0.265zM16.973 4.651c0.127 0.007 0.384 0 0.462 0.082-0.025 0.233-0.094 0.696-0.306 0.727-0.314-0.080-0.791-0.271-0.758-0.658 0.114-0.123 0.347-0.165 0.601-0.152zM19.625 5.359c-0.011-0.337-0.069-0.874-0.115-1.208-0.022-0.171-0.052-0.537-0.128-0.646-0.135-0.189-0.478-0.124-0.599 0.011-0.031 0.037-0.113 0.177-0.067 0.376 0.004 0.35 0.269 1.279 0.36 1.893 0.036 0.299 0.050 0.55 0.251 0.618 0.329 0.136 0.624-0.304 0.789-0.529 0.544-0.757 0.762-1.11 1.037-1.491 0.15-0.213 0.361-0.359 0.292-0.669-0.047-0.26-0.313-0.349-0.521-0.229-0.243 0.136-0.35 0.454-0.534 0.73-0.255 0.316-0.5 0.794-0.766 1.143zM22.271 5.711c0.165-0.036 0.446-0.087 0.659-0.126 0.315-0.054 0.478-0.131 0.788-0.206 0.186-0.041 0.336-0.254 0.341-0.435 0.013-0.119-0.053-0.395-0.091-0.48-0.215-0.702-0.74-0.952-1.416-0.794-0.275 0.052-0.601 0.279-0.792 0.562-0.244 0.27-0.361 0.682-0.295 1.267 0.122 0.564 0.275 0.775 0.79 1.051 0.32 0.215 0.981 0.198 1.346-0.013 0.123-0.081 0.178-0.284 0.048-0.452-0.237-0.18-0.46 0.16-0.896 0.020-0.287-0.091-0.453-0.169-0.483-0.394zM22.402 4.455c0.455-0.295 0.851-0.227 0.971 0.297-0.045 0.109-0.25 0.202-0.406 0.22-0.238 0.021-0.657 0.112-0.775 0.080-0.041-0.126 0.023-0.475 0.211-0.597zM27.182 3.094c-0.285 0.085-0.292 0.602-0.368 0.943-0.162 0.709-0.249 1.473-0.47 2.223-0.085 0.294-0.257 0.847 0.083 0.937 0.177 0.045 0.448-0.107 0.537-0.246 0.129-0.208 0.116-0.653 0.185-0.928 0.124-0.538 0.246-1.319 0.38-1.89 0.061-0.263 0.255-0.632 0.193-0.813-0.069-0.243-0.375-0.275-0.541-0.224zM30.004 3.438c-1.21 0.061-1.638 1.125-1.812 2.015-0.127 0.377-0.25 1.225 0.169 1.531 0.281 0.204 0.689 0.476 1.254 0.414 1.524-0.162 1.919-2.259 1.625-2.983-0.154-0.393-0.559-1.014-1.236-0.977zM29.197 4.725c0.141-0.193 0.461-0.482 0.721-0.469 0.341 0.022 0.65 0.533 0.658 0.782 0.021 0.574-0.339 1.558-0.965 1.627-0.245 0.028-0.635-0.161-0.719-0.385-0.115-0.315 0.014-1.155 0.304-1.555zM35.529 3.858c-0.345 0.024-0.431 0.197-0.628 0.472-0.25 0.352-0.524 0.775-0.781 1.21l-0.048 0.088c-0.208 0.368-0.37 0.635-0.538 0.897l0.049-0.081c-0.107 0.19-0.37 0.452-0.383 0.699-0.010 0.281 0.252 0.416 0.544 0.32 0.32-0.101 0.548-0.608 0.711-0.88 0.277-0.461 0.575-0.995 0.919-1.517 0.152-0.226 0.584-0.759 0.525-1.027-0.031-0.158-0.161-0.198-0.372-0.18zM33.082 3.661c-0.331 0.012-0.713 0.194-0.847 0.388-0.214 0.307-0.242 0.956 0.043 1.188 0.846 0.714 1.917-0.007 1.796-0.773-0.055-0.369-0.545-0.824-0.992-0.803zM33.355 4.712c-0.096 0.46-0.842-0.055-0.368-0.341 0.226-0.037 0.416 0.131 0.368 0.341zM35.931 5.984c-0.384 0.007-0.866 0.245-1.036 0.523-0.253 0.417-0.189 1.029 0.123 1.189 0.293 0.152 0.824 0.094 1.099-0.025 0.225-0.097 0.514-0.349 0.575-0.544 0.197-0.598-0.41-1.152-0.76-1.142zM36.002 6.906c-0.025 0.239-0.25 0.33-0.454 0.228-0.446-0.235 0.514-0.739 0.454-0.228zM11.272 12.186c0.42-0.036 0.76 0.060 1.124-0.137 0.371-0.136 0.787-0.449 0.976-0.718 0.314-0.431 0.287-1.059 0.043-1.428-0.389-0.518-0.862-0.629-1.524-0.732-0.274-0.015-0.685-0.005-0.832 0.249-0.179 0.553-0.343 1.282-0.444 1.856-0.069 0.463-0.13 0.854-0.196 1.351-0.036 0.285-0.16 0.622 0.073 0.714 0.362 0.139 0.569-0.169 0.638-0.504 0.051-0.23 0.070-0.477 0.142-0.651zM12.736 10.989c-0.247 0.431-0.865 0.622-1.422 0.543 0.010-0.355 0.148-0.899 0.267-1.33 0.085-0.3 0.065-0.363 0.373-0.351 0.631 0.012 1.136 0.516 0.782 1.138zM14.778 11.648c0.165-0.036 0.446-0.088 0.659-0.126 0.315-0.054 0.478-0.131 0.788-0.206 0.186-0.041 0.336-0.254 0.341-0.435 0.013-0.12-0.053-0.396-0.091-0.48-0.215-0.702-0.74-0.952-1.416-0.794-0.275 0.052-0.601 0.28-0.792 0.562-0.244 0.27-0.361 0.682-0.295 1.267 0.122 0.564 0.275 0.775 0.79 1.051 0.32 0.215 0.981 0.197 1.346-0.013 0.123-0.081 0.178-0.284 0.048-0.452-0.236-0.18-0.46 0.16-0.896 0.020-0.287-0.091-0.453-0.169-0.483-0.394zM14.91 10.39c0.455-0.295 0.851-0.226 0.971 0.297-0.045 0.11-0.25 0.203-0.406 0.22-0.238 0.022-0.657 0.112-0.775 0.080-0.041-0.125 0.023-0.475 0.21-0.597zM17.937 9.754c-0.061-0.075-0.152-0.124-0.255-0.127l-0.001-0c-0.361-0.024-0.373 0.216-0.484 0.702-0.117 0.533-0.231 1.428-0.334 1.969-0.035 0.138-0.078 0.288-0.060 0.37 0.025 0.083 0.156 0.178 0.256 0.195 0.251 0.040 0.379 0.040 0.469-0.179 0.109-0.271 0.181-1.023 0.234-1.333 0.012-0.113 0.497-0.372 0.778-0.423 0.117-0.028 0.411-0.072 0.554-0.090 0.137-0.019 0.399-0.146 0.387-0.416-0.013-0.129-0.164-0.233-0.302-0.26-0.236-0.058-0.52 0.019-0.706 0.067-0.173 0.049-0.422 0.238-0.583 0.167 0.036-0.218 0.096-0.406 0.047-0.64zM22.337 11.488c-0.026-0.198 0.319-1.11 0.067-1.344-0.067-0.068-0.219-0.091-0.296-0.058-0.308 0.116-0.331 0.456-0.39 0.894-0.033 0.191-0.082 0.462-0.139 0.745-0.064 0.289-0.103 0.595-0.147 0.818-0.055 0.27-0.115 0.512 0.017 0.607 0.068 0.054 0.295 0.072 0.407 0.023 0.127-0.054 0.241-0.244 0.35-0.448 0.187-0.37 0.393-0.604 0.611-0.89 0.117-0.156 0.221-0.373 0.417-0.387 0.089 0.306-0.086 0.691-0.171 1.058-0.034 0.138-0.085 0.294-0.080 0.382 0.022 0.365 0.443 0.329 0.662 0.157 0.285-0.219 0.544-0.642 0.757-0.929 0.072-0.114 0.165-0.225 0.298-0.278 0.019 0.271-0.066 0.504-0.124 0.733-0.050 0.216-0.143 0.53-0.122 0.774 0.037 0.414 0.527 0.364 0.669 0.097 0.075-0.14 0.125-0.485 0.167-0.689 0.044-0.231 0.083-0.469 0.132-0.685 0.076-0.341 0.32-1.19 0.040-1.34-0.338-0.177-0.622 0.224-0.782 0.402-0.099 0.111-0.242 0.25-0.341 0.368s-0.216 0.205-0.414 0.353c0.061-0.64 0.067-1.472-0.593-1.266-0.257 0.081-0.506 0.397-0.673 0.588-0.091 0.098-0.245 0.277-0.323 0.316zM27.224 10.723c-0.216 0.011-0.331 0.073-0.503 0.176-0.274 0.173-0.314 0.243-0.492 0.466-0.338 0.401-0.492 1.158-0.19 1.681 0.172 0.22 0.535 0.473 0.871 0.542 0.401 0.089 0.718 0.008 0.989-0.131 0.473-0.273 0.832-0.753 0.814-1.286 0.063-0.854-0.506-1.519-1.488-1.447zM26.598 12.399c-0.022-0.426 0.362-1.011 0.728-1.040 0.474-0.037 0.821 0.503 0.642 1.049-0.091 0.293-0.404 0.516-0.616 0.554-0.451 0.067-0.736-0.232-0.755-0.564zM29.952 12.334c-0.041-0.441 0.279-1.248-0.263-1.204-0.312 0.028-0.342 0.502-0.395 0.88-0.070 0.47-0.179 0.868-0.274 1.329-0.091 0.414-0.216 0.838 0.273 0.788 0.183-0.014 0.463-0.569 0.598-0.757 0.234-0.311 0.187-0.31 0.566-0.714 0.153-0.172 0.312-0.411 0.521-0.416 0.009 0.303-0.044 0.486-0.117 0.801-0.081 0.321-0.151 0.67-0.165 0.998 0.128 0.255 0.591 0.196 0.701-0.021 0.034-0.071 0.024-0.233 0.037-0.352 0.057-0.485 0.303-1.226 0.312-1.688 0.002-0.215-0.078-0.472-0.153-0.527-0.241-0.201-0.52-0.048-0.706 0.060-0.241 0.151-0.446 0.333-0.618 0.542l-0.003 0.004c-0.085 0.106-0.18 0.176-0.312 0.277zM33.952 11.504c-0.026-0.46 0.113-0.627 0.197-0.974 0.084-0.226 0.142-0.395-0.192-0.41-0.528-0.029-0.521 0.416-0.621 0.795-0.043 0.15-0.118 0.546-0.239 0.614-0.114 0.062-0.572 0.007-0.715 0.026-0.139 0.039-0.266 0.16-0.299 0.285-0.045 0.11-0.020 0.32 0.112 0.408 0.183 0.113 0.671-0.044 0.799 0.144-0.067 0.383-0.106 0.688-0.172 0.937-0.019 0.119-0.152 0.616-0.185 0.734-0.024 0.105-0.231 0.662-0.202 0.772 0.037 0.098 0.244 0.18 0.392 0.175 0.337-0.011 0.455-0.745 0.525-0.967 0.033-0.131 0.154-0.636 0.181-0.768 0.037-0.158 0.162-0.904 0.299-0.997 0.131-0.094 0.672 0.010 0.888-0.075 0.148-0.058 0.248-0.243 0.227-0.427-0.033-0.32-0.85-0.103-0.993-0.272zM36.287 11.945c-0.067 0 0.076-0.476 0.139-0.752 0.040-0.191 0.198-0.477 0.094-0.703-0.055-0.114-0.229-0.192-0.385-0.175-0.306 0.035-0.363 0.64-0.448 1.069-0.083 0.408-0.167 0.695-0.265 1.175-0.153 0.69-0.258 0.982-0.404 1.605-0.086 0.374-0.118 0.74 0.17 0.811 0.416 0.077 0.449-0.248 0.518-0.585 0.129-0.517 0.148-0.831 0.304-1.292 0.077-0.16 0.187-0.309 0.318-0.404 0.117-0.096 0.275-0.186 0.494-0.163 0.103 0.111-0.004 0.867-0.014 1.027-0.081 0.711-0.21 1.296-0.15 1.423s0.347 0.218 0.509 0.080c0.184-0.149 0.211-0.596 0.248-1.016 0.042-0.399 0.122-0.908 0.136-1.236 0.022-0.462-0.062-0.948-0.348-1.039-0.384-0.121-0.572 0.196-0.919 0.172z"></path>
</symbol>
<symbol id="icon-vector" viewBox="0 0 45 32">
<path d="M43.824 2.979c0.608 0.698 0.978 1.616 0.978 2.621 0 1.205-0.533 2.286-1.377 3.020l-0.005 0.004-24 20.8c-0.698 0.607-1.616 0.977-2.62 0.977-1.105 0-2.106-0.448-2.83-1.173l-12.8-12.8c-0.724-0.724-1.172-1.724-1.172-2.829 0-2.209 1.791-4.001 4.001-4.001 1.105 0 2.105 0.448 2.829 1.172l10.163 10.166 21.184-18.362c0.698-0.608 1.616-0.978 2.621-0.978 1.205 0 2.286 0.533 3.020 1.377l0.004 0.005z"></path>
</symbol>
<symbol id="icon-logo" viewBox="0 0 33 32">
<path fill="#a8ff35" style="fill: var(--color2, #a8ff35)" d="M16.547 32c-8.837 0-16-7.163-16-16s7.163-16 16-16c8.837 0 16 7.163 16 16s-7.163 16-16 16zM21.538 7.453c0.243-0.863-0.595-1.373-1.359-0.828l-10.678 7.607c-0.83 0.591-0.699 1.768 0.196 1.768h2.812v-0.022h5.48l-4.465 1.575-1.968 6.993c-0.243 0.863 0.594 1.373 1.359 0.828l10.678-7.607c0.83-0.591 0.699-1.768-0.196-1.768h-4.264l2.406-8.547z"></path>
</symbol>
<symbol id="icon-mobileGroup1" viewBox="0 0 47 32">
<path d="M19.459 17.414c-0.412-0.691-1.078-0.862-1.713-0.939-0.884-0.096-1.787-0.098-2.659-0.006-4.003 0.525-7.213 2.495-9.683 5.652-0.625 0.805-1.146 1.713-1.769 2.673-0.601-0.887-0.582-2.039-1.152-2.988-0.308 0.366-0.231 0.739-0.176 1.050 0.231 1.274 0.483 2.559 0.766 3.832 0.141 0.611 0.392 0.785 0.951 0.593 1.17-0.384 2.107-1.088 2.782-2.101 0.020-0.042-0.012-0.135-0.044-0.28-1.009-0.209-1.36 1.040-2.336 1.080 0.368-1.602 1.29-2.855 2.316-4.006 1.078-1.203 2.251-2.283 3.666-3.064 1.384-0.77 2.864-1.21 4.419-1.535 1.544-0.357 3.071-0.309 4.632 0.040z"></path>
<path d="M7.375 2.38c-0.192-0.23-0.215-0.551-0.331-0.898-0.048-0.141-0.105-0.301-0.167-0.466-0.030-0.094-0.101-0.391-0.169-0.449-0.219-0.182-0.596 0.108-0.62 0.332-0.014 0.129 0.063 0.268 0.116 0.41 0.049 0.13 0.106 0.284 0.146 0.396 0.086 0.259 0.242 0.508 0.31 0.782 0.038 0.129 0.121 0.251 0.159 0.38 0.060 0.239 0.032 0.452-0.017 0.759-0.041 0.285-0.31 1.001 0.028 1.082 0.189 0.037 0.354-0.076 0.404-0.168 0.024-0.066 0.062-0.266 0.085-0.377 0.044-0.205 0.085-0.377 0.113-0.584 0.022-0.157 0.059-0.403 0.099-0.506 0.033-0.099 0.117-0.192 0.202-0.297 0.067-0.095 0.133-0.185 0.205-0.274 0.359-0.445 0.545-0.59 0.933-0.992 0.083-0.088 0.378-0.301 0.338-0.515-0.038-0.231-0.328-0.233-0.425-0.17-0.043 0.030-0.149 0.177-0.201 0.24-0.059 0.079-0.136 0.156-0.193 0.213-0.237 0.259-0.431 0.483-0.657 0.743-0.11 0.125-0.196 0.297-0.356 0.36zM9.425 2.096c-0.183 0.009-0.279 0.062-0.424 0.148-0.231 0.146-0.266 0.205-0.416 0.393-0.285 0.339-0.415 0.978-0.161 1.42 0.145 0.186 0.452 0.4 0.735 0.458 0.338 0.075 0.607 0.007 0.835-0.111 0.399-0.231 0.703-0.636 0.688-1.086 0.053-0.721-0.427-1.283-1.257-1.222zM8.896 3.511c-0.019-0.36 0.306-0.854 0.615-0.878 0.401-0.032 0.694 0.425 0.543 0.886-0.077 0.247-0.341 0.435-0.52 0.468-0.381 0.056-0.621-0.196-0.637-0.476zM11.652 2.614c-0.486-0.074-0.575 0.337-0.643 0.767-0.023 0.168-0.070 0.555-0.067 0.748 0.007 0.421 0.261 0.652 0.556 0.757 0.811 0.222 1.173-0.144 1.42-0.759 0.092-0.223 0.152-0.472 0.181-0.696 0.034-0.269 0.072-0.742-0.081-0.854-0.095-0.072-0.376-0.045-0.438 0.119-0.064 0.181-0.073 0.64-0.121 0.884-0.061 0.306-0.267 0.807-0.495 0.817-0.667 0.078-0.371-0.845-0.28-1.284 0.041-0.172 0.109-0.386-0.033-0.497zM15.72 1.519c-0.242 0.031-0.398 0.441-0.135 0.531 0.214 0.074 0.518-0.116 0.487-0.363-0.019-0.144-0.178-0.195-0.351-0.168zM15.551 2.859c-0.224 0.028-0.256 0.274-0.302 0.445-0.020 0.077-0.082 0.4-0.103 0.551-0.050 0.421-0.135 0.741-0.235 1.151-0.145 0.57-0.287 1.321-0.711 1.47-0.129 0.043-0.563 0.009-0.6 0.249-0.036 0.235 0.272 0.381 0.52 0.35 0.086-0.008 0.226-0.039 0.315-0.075 0.101-0.041 0.204-0.104 0.265-0.143 0.134-0.088 0.374-0.37 0.452-0.515 0.072-0.14 0.103-0.33 0.168-0.516 0.051-0.159 0.092-0.331 0.132-0.497 0.076-0.344 0.176-0.703 0.234-1.037 0.045-0.262 0.087-0.508 0.136-0.752 0.027-0.145 0.11-0.346 0.060-0.516-0.033-0.117-0.179-0.189-0.329-0.165zM16.863 3.161c-0.486-0.074-0.575 0.337-0.643 0.767-0.023 0.168-0.070 0.555-0.067 0.748 0.007 0.421 0.261 0.652 0.556 0.757 0.811 0.222 1.173-0.144 1.42-0.759 0.092-0.223 0.152-0.472 0.181-0.696 0.034-0.269 0.072-0.742-0.081-0.854-0.095-0.072-0.376-0.045-0.438 0.119-0.064 0.181-0.073 0.64-0.121 0.884-0.061 0.306-0.267 0.807-0.495 0.817-0.667 0.078-0.371-0.845-0.28-1.284 0.041-0.172 0.109-0.386-0.033-0.497zM19.699 3.175c-0.307 0.002-0.598 0.068-0.826 0.294-0.089 0.093-0.143 0.337-0.147 0.484-0.008 0.238 0.208 0.448 0.385 0.608 0.145 0.129 0.507 0.366 0.448 0.604-0.385 0.425-0.558-0.036-0.875 0.061-0.059 0.017-0.132 0.071-0.149 0.121-0.081 0.281-0.010 0.362 0.456 0.519 0.197 0.066 0.511 0.054 0.68-0.036 0.234-0.123 0.439-0.34 0.483-0.648 0.055-0.414-0.274-0.688-0.485-0.891-0.046-0.045-0.323-0.221-0.295-0.377 0.030-0.179 0.215-0.21 0.515-0.094 0.107 0.062 0.345 0.286 0.466 0.208 0.060-0.028 0.195-0.127 0.194-0.275-0.002-0.199-0.206-0.362-0.421-0.476-0.108-0.057-0.398-0.104-0.427-0.102zM22.335 3.515c-0.022-0.388 0.095-0.529 0.166-0.823 0.071-0.191 0.12-0.334-0.162-0.346-0.446-0.024-0.44 0.351-0.525 0.672-0.036 0.127-0.1 0.461-0.202 0.518-0.096 0.052-0.483 0.006-0.604 0.022-0.117 0.033-0.224 0.135-0.252 0.24-0.038 0.093-0.017 0.271 0.094 0.345 0.155 0.096 0.566-0.037 0.674 0.122-0.057 0.323-0.089 0.581-0.146 0.791-0.016 0.101-0.128 0.52-0.156 0.62-0.021 0.089-0.195 0.559-0.171 0.652 0.031 0.083 0.205 0.152 0.331 0.148 0.285-0.010 0.384-0.63 0.444-0.816 0.029-0.111 0.13-0.537 0.153-0.648 0.031-0.133 0.137-0.763 0.253-0.842 0.111-0.079 0.567 0.008 0.75-0.063 0.124-0.049 0.209-0.205 0.191-0.36-0.028-0.27-0.718-0.087-0.839-0.23zM25.615 4.916c-0.035-0.373 0.236-1.054-0.222-1.017-0.264 0.023-0.289 0.424-0.334 0.743-0.059 0.397-0.151 0.734-0.232 1.123-0.076 0.35-0.182 0.708 0.231 0.666 0.155-0.012 0.391-0.481 0.504-0.64 0.198-0.263 0.158-0.262 0.478-0.603 0.129-0.145 0.264-0.347 0.44-0.351 0.007 0.256-0.038 0.411-0.1 0.677-0.068 0.271-0.128 0.566-0.14 0.843 0.108 0.216 0.499 0.166 0.592-0.017 0.029-0.059 0.021-0.197 0.031-0.298 0.049-0.409 0.256-1.035 0.263-1.426 0.002-0.181-0.066-0.399-0.129-0.445-0.204-0.169-0.439-0.040-0.596 0.051-0.206 0.126-0.382 0.289-0.525 0.461-0.072 0.089-0.152 0.149-0.263 0.234zM28.146 5.948c0.14-0.031 0.377-0.074 0.556-0.106 0.266-0.046 0.403-0.111 0.666-0.174 0.157-0.035 0.284-0.214 0.288-0.367 0.011-0.101-0.044-0.334-0.077-0.406-0.182-0.593-0.625-0.804-1.196-0.671-0.232 0.044-0.507 0.236-0.669 0.475-0.206 0.228-0.305 0.576-0.249 1.070 0.103 0.476 0.232 0.655 0.668 0.888 0.27 0.182 0.829 0.167 1.137-0.011 0.104-0.069 0.15-0.24 0.040-0.382-0.2-0.152-0.389 0.135-0.757 0.017-0.242-0.077-0.383-0.142-0.408-0.332zM28.258 4.887c0.384-0.249 0.719-0.191 0.82 0.251-0.038 0.093-0.211 0.171-0.343 0.185-0.201 0.019-0.555 0.095-0.654 0.067-0.034-0.106 0.019-0.401 0.178-0.504zM30.664 6.213c0.139-0.031 0.377-0.074 0.556-0.106 0.266-0.046 0.403-0.111 0.666-0.174 0.157-0.035 0.284-0.214 0.288-0.367 0.011-0.101-0.044-0.334-0.077-0.405-0.182-0.593-0.625-0.804-1.196-0.671-0.232 0.044-0.507 0.236-0.669 0.475-0.206 0.228-0.305 0.576-0.249 1.070 0.103 0.476 0.232 0.655 0.668 0.888 0.27 0.182 0.829 0.167 1.137-0.011 0.104-0.069 0.15-0.24 0.040-0.382-0.2-0.152-0.389 0.135-0.757 0.017-0.242-0.077-0.383-0.142-0.408-0.332zM30.775 5.152c0.384-0.249 0.719-0.191 0.82 0.251-0.038 0.093-0.211 0.171-0.343 0.185-0.201 0.019-0.555 0.095-0.654 0.067-0.034-0.106 0.019-0.401 0.178-0.504zM33.97 7.781c0.258 0.084 0.428-0.018 0.486-0.25 0.108-0.432 0.134-1.059 0.211-1.625 0.071-0.407 0.173-0.89 0.252-1.319 0.068-0.322 0.256-0.927-0.025-1.002-0.087-0.038-0.276-0.023-0.323 0.046-0.159 0.273-0.114 1.084-0.369 1.239-0.359-0.038-0.679-0.026-0.981 0.096-0.274 0.119-0.475 0.308-0.631 0.547-0.127 0.185-0.223 0.505-0.175 0.805 0.049 0.289 0.318 0.596 0.551 0.756 0.255 0.169 0.554 0.183 0.856 0.283 0.061 0.126 0.026 0.349 0.148 0.424zM34.038 6.159c-0.035 0.172-0.067 0.532-0.136 0.65-0.27 0.034-0.661-0.194-0.801-0.425-0.232-0.388 0.101-0.909 0.521-0.905 0.261 0.005 0.403-0.049 0.476 0.067 0.027 0.122-0.023 0.435-0.059 0.613zM37.764 5.074c-0.183 0.009-0.279 0.062-0.424 0.148-0.231 0.146-0.266 0.205-0.416 0.393-0.285 0.339-0.415 0.978-0.161 1.42 0.145 0.186 0.452 0.4 0.735 0.458 0.338 0.075 0.607 0.007 0.835-0.111 0.399-0.231 0.703-0.636 0.688-1.086 0.053-0.721-0.427-1.283-1.257-1.222zM37.234 6.489c-0.019-0.36 0.306-0.854 0.615-0.878 0.401-0.032 0.694 0.425 0.543 0.886-0.077 0.247-0.341 0.435-0.52 0.468-0.381 0.057-0.621-0.196-0.637-0.476zM40.067 6.435c-0.035-0.373 0.236-1.054-0.222-1.017-0.264 0.023-0.289 0.424-0.334 0.743-0.059 0.397-0.151 0.734-0.232 1.123-0.077 0.35-0.182 0.708 0.231 0.666 0.155-0.012 0.391-0.481 0.504-0.64 0.198-0.263 0.158-0.262 0.478-0.603 0.129-0.145 0.264-0.347 0.44-0.351 0.007 0.256-0.037 0.411-0.099 0.677-0.068 0.271-0.128 0.566-0.14 0.843 0.108 0.216 0.499 0.166 0.592-0.017 0.029-0.059 0.021-0.197 0.031-0.298 0.049-0.409 0.256-1.035 0.263-1.426 0.002-0.181-0.066-0.399-0.129-0.445-0.204-0.169-0.439-0.040-0.596 0.051-0.206 0.126-0.382 0.289-0.525 0.462-0.072 0.089-0.152 0.149-0.263 0.234zM42.598 7.467c0.139-0.031 0.377-0.074 0.556-0.106 0.266-0.046 0.403-0.111 0.666-0.174 0.157-0.035 0.284-0.214 0.288-0.367 0.011-0.101-0.044-0.334-0.077-0.405-0.182-0.593-0.625-0.804-1.196-0.671-0.232 0.044-0.507 0.236-0.669 0.475-0.206 0.228-0.305 0.576-0.249 1.070 0.103 0.476 0.232 0.655 0.668 0.888 0.27 0.182 0.829 0.167 1.137-0.011 0.104-0.069 0.15-0.24 0.040-0.382-0.2-0.152-0.389 0.135-0.757 0.017-0.242-0.077-0.383-0.142-0.408-0.332zM42.71 6.406c0.384-0.249 0.719-0.191 0.82 0.251-0.038 0.093-0.211 0.171-0.343 0.185-0.201 0.019-0.555 0.095-0.654 0.068-0.034-0.106 0.019-0.401 0.178-0.504zM17.16 8.649c-0.022-0.388 0.095-0.529 0.166-0.823 0.071-0.191 0.12-0.334-0.162-0.346-0.446-0.024-0.44 0.351-0.525 0.672-0.036 0.127-0.1 0.461-0.202 0.518-0.096 0.052-0.483 0.006-0.604 0.022-0.117 0.033-0.224 0.135-0.252 0.24-0.038 0.093-0.017 0.271 0.094 0.345 0.155 0.096 0.566-0.037 0.674 0.122-0.057 0.323-0.089 0.581-0.146 0.791-0.016 0.101-0.129 0.52-0.156 0.62-0.021 0.089-0.195 0.559-0.171 0.652 0.031 0.083 0.205 0.152 0.331 0.148 0.285-0.010 0.384-0.63 0.444-0.816 0.029-0.111 0.13-0.537 0.153-0.648 0.031-0.133 0.137-0.764 0.253-0.842 0.111-0.079 0.567 0.008 0.75-0.063 0.124-0.049 0.209-0.205 0.191-0.36-0.028-0.27-0.718-0.087-0.839-0.23zM18.632 9.4c0.206 0.039 0.468-0.189 0.897-0.212 0.127 0.030 0.288 0.342 0.127 0.519-0.102 0.103-0.581 0.018-0.865 0.074-0.163 0.034-0.372 0.131-0.458 0.202-0.137 0.111-0.303 0.292-0.273 0.596 0.003 0.131 0.103 0.261 0.195 0.361 0.219 0.29 0.462 0.418 0.779 0.582 0.091 0.049 0.317 0.113 0.415 0.106 0.137-0.003 0.304-0.19 0.355-0.298 0.122-0.294 0.21-0.597 0.306-0.916 0.075-0.282 0.202-0.677 0.178-1.043-0.014-0.297-0.177-0.586-0.371-0.681-0.346-0.116-0.633-0.027-1.006 0.116-0.188 0.060-0.413 0.144-0.408 0.372 0.006 0.103 0.027 0.173 0.13 0.224zM19.161 10.256c0.107 0.006 0.324-0 0.39 0.069-0.021 0.197-0.079 0.588-0.258 0.615-0.265-0.068-0.669-0.229-0.64-0.556 0.096-0.103 0.293-0.14 0.507-0.128zM21.419 9.142c-0.014-0.189 0.017-0.322 0.055-0.528 0.050-0.205 0.152-0.524 0.085-0.701-0.083-0.236-0.416-0.203-0.529-0.044-0.099 0.188-0.15 0.62-0.196 0.837-0.109 0.5-0.247 1.053-0.348 1.638-0.045 0.268-0.157 0.625-0.154 0.875 0.001 0.21 0.059 0.461 0.326 0.517 0.172 0.041 0.646-0.091 0.787-0.144 0.248-0.088 0.47-0.206 0.698-0.375 0.297-0.23 0.633-0.569 0.663-1.009 0.026-0.463-0.346-0.758-0.737-0.872-0.221-0.063-0.512-0.043-0.65-0.193zM21.041 10.477c0.041-0.28 0.114-0.596 0.263-0.716 0.388-0.022 0.902 0.169 0.892 0.486-0.011 0.209-0.301 0.428-0.456 0.56-0.163 0.147-0.653 0.374-0.821 0.357l0.123-0.685zM25.315 10.563c-0.035-0.373 0.236-1.054-0.222-1.017-0.264 0.023-0.289 0.424-0.334 0.743-0.059 0.397-0.151 0.734-0.232 1.123-0.077 0.35-0.182 0.708 0.231 0.666 0.155-0.012 0.391-0.481 0.504-0.64 0.198-0.263 0.158-0.262 0.478-0.603 0.129-0.145 0.264-0.347 0.44-0.351 0.007 0.256-0.037 0.411-0.099 0.677-0.068 0.271-0.128 0.566-0.14 0.843 0.108 0.216 0.499 0.166 0.592-0.017 0.029-0.059 0.021-0.197 0.031-0.298 0.049-0.409 0.256-1.035 0.263-1.426 0.002-0.181-0.066-0.399-0.129-0.445-0.204-0.169-0.439-0.040-0.596 0.051-0.206 0.126-0.382 0.289-0.525 0.461-0.072 0.089-0.152 0.149-0.263 0.234zM28.223 9.749c-0.183 0.009-0.279 0.062-0.424 0.148-0.231 0.146-0.266 0.205-0.416 0.393-0.285 0.339-0.415 0.978-0.161 1.42 0.145 0.186 0.452 0.4 0.735 0.458 0.338 0.075 0.607 0.007 0.835-0.111 0.399-0.231 0.703-0.636 0.688-1.086 0.053-0.721-0.427-1.283-1.257-1.222zM27.693 11.164c-0.019-0.36 0.305-0.854 0.615-0.878 0.401-0.032 0.694 0.425 0.543 0.886-0.077 0.247-0.341 0.435-0.52 0.468-0.381 0.057-0.621-0.196-0.637-0.476zM30.447 12.022c-0.082-0.134-0.066-0.563-0.058-0.852 0.010-0.203 0.138-0.775 0.078-0.9-0.070-0.144-0.365-0.197-0.492-0.069-0.171 0.169-0.171 1.084-0.164 1.289 0.019 0.309 0.023 0.695 0.132 0.905 0.145 0.299 0.566 0.287 0.808 0.147 0.127-0.077 0.412-0.462 0.444-0.442 0.043 0.022 0.176 0.484 0.263 0.573 0.184 0.195 0.493 0.114 0.74-0.013 0.56-0.305 1.116-1.268 1.17-2.216-0.107-0.221-0.423-0.186-0.534-0.056-0.104 0.177-0.185 0.679-0.304 1.002-0.128 0.35-0.531 0.841-0.659 0.811-0.144-0.038-0.161-0.846-0.307-1.077-0.088-0.134-0.238-0.11-0.356-0.066-0.194 0.116-0.442 0.913-0.76 0.965z"></path>
</symbol>
<symbol id="icon-mobileGroup2" viewBox="0 0 47 32">
<path d="M24.012 17.735c-0.624-0.565-0.661-1.284-0.61-1.95 0.084-0.926 0.268-1.853 0.541-2.728 1.363-3.998 4.046-6.883 7.793-8.766 0.954-0.475 1.993-0.822 3.106-1.264-0.786-0.799-1.971-1.017-2.828-1.798 0.439-0.24 0.806-0.085 1.113 0.036 1.259 0.5 2.525 1.023 3.773 1.576 0.597 0.271 0.724 0.564 0.412 1.098-0.635 1.12-1.551 1.937-2.729 2.421-0.047 0.012-0.136-0.040-0.278-0.103-0.006-1.078 1.347-1.181 1.589-2.173-1.718 0.047-3.194 0.734-4.587 1.55-1.456 0.858-2.806 1.838-3.898 3.128-1.075 1.26-1.831 2.688-2.485 4.215-0.684 1.51-0.95 3.086-0.914 4.759z"></path>
<path d="M11.143 20.942c-0.32 0.029-0.617 0.124-0.835 0.379-0.085 0.105-0.119 0.364-0.111 0.518 0.013 0.248 0.257 0.448 0.455 0.6 0.163 0.121 0.561 0.336 0.52 0.589-0.364 0.477-0.585 0.012-0.907 0.142-0.060 0.022-0.132 0.086-0.145 0.139-0.059 0.3 0.022 0.379 0.522 0.501 0.212 0.051 0.537 0.011 0.705-0.098 0.233-0.149 0.427-0.393 0.446-0.718 0.020-0.437-0.347-0.692-0.585-0.886-0.052-0.042-0.356-0.202-0.341-0.367 0.016-0.189 0.206-0.238 0.529-0.143 0.117 0.055 0.385 0.268 0.505 0.175 0.060-0.034 0.192-0.15 0.177-0.304-0.020-0.207-0.247-0.359-0.481-0.459-0.117-0.050-0.424-0.073-0.454-0.068zM13.42 20.987c-0.19 0.026-0.285 0.089-0.429 0.192-0.228 0.173-0.259 0.237-0.399 0.447-0.267 0.379-0.346 1.057-0.041 1.494 0.168 0.181 0.507 0.376 0.807 0.412 0.359 0.049 0.633-0.047 0.861-0.19 0.395-0.276 0.676-0.725 0.62-1.193-0.009-0.756-0.559-1.299-1.419-1.163zM12.994 22.509c-0.052-0.373 0.243-0.917 0.563-0.97 0.415-0.069 0.761 0.381 0.645 0.875-0.058 0.265-0.317 0.484-0.501 0.534-0.392 0.093-0.665-0.149-0.706-0.439zM15.88 19.605c-0.404 0.116-0.376 0.773-0.427 1.262-0.073 0.708-0.154 1.232-0.251 1.957-0.035 0.283-0.233 1.047-0.035 1.163 0.169 0.11 0.427-0.057 0.501-0.244 0.050-0.123 0.118-0.589 0.139-0.759 0.094-0.867 0.203-1.627 0.286-2.529 0.036-0.348 0.202-0.965-0.214-0.849zM17.016 21.353c-0.513-0.034-0.569 0.402-0.602 0.857-0.009 0.177-0.023 0.585-0.004 0.786 0.044 0.438 0.33 0.657 0.647 0.74 0.865 0.159 1.21-0.254 1.413-0.918 0.076-0.241 0.116-0.506 0.127-0.742 0.012-0.283 0.009-0.78-0.16-0.884-0.105-0.067-0.396-0.014-0.446 0.163-0.051 0.194-0.019 0.673-0.048 0.933-0.036 0.324-0.206 0.865-0.443 0.895-0.688 0.14-0.462-0.848-0.405-1.314 0.027-0.183 0.079-0.412-0.078-0.516zM20.433 21.19c-0.057-0.403 0.052-0.56 0.1-0.873 0.057-0.206 0.096-0.359-0.2-0.347-0.467 0.014-0.428 0.405-0.487 0.747-0.026 0.135-0.063 0.489-0.165 0.558-0.096 0.063-0.503 0.049-0.628 0.076-0.119 0.045-0.222 0.161-0.242 0.273-0.032 0.1 0.006 0.284 0.129 0.351 0.17 0.086 0.587-0.089 0.714 0.067-0.030 0.342-0.042 0.614-0.082 0.837-0.008 0.106-0.088 0.554-0.108 0.66-0.014 0.094-0.154 0.6-0.12 0.695 0.040 0.084 0.228 0.14 0.358 0.125 0.296-0.036 0.345-0.69 0.39-0.89 0.020-0.118 0.088-0.571 0.102-0.689 0.021-0.141 0.075-0.808 0.189-0.9 0.108-0.092 0.592-0.041 0.777-0.132 0.125-0.063 0.2-0.232 0.167-0.393-0.054-0.279-0.756-0.027-0.895-0.165zM22.18 20.462c-0.16 0.032-0.305 0.201-0.291 0.378 0.028 0.355 0.662 0.267 0.664-0.093-0.002-0.213-0.165-0.322-0.373-0.285zM22.107 21.465c-0.284 0.018-0.379 0.341-0.426 0.642-0.055 0.389-0.116 0.813-0.172 1.22-0.034 0.23-0.092 0.465 0.006 0.567 0.139 0.15 0.507 0.040 0.593-0.124 0.062-0.123 0.050-0.454 0.066-0.666 0.025-0.378 0.091-0.713 0.162-1.049 0.038-0.153 0.095-0.299 0.078-0.377-0.027-0.154-0.226-0.223-0.309-0.213zM23.762 21.191c-0.19 0.026-0.285 0.089-0.429 0.192-0.228 0.173-0.259 0.237-0.399 0.447-0.267 0.379-0.346 1.057-0.041 1.494 0.168 0.181 0.507 0.376 0.807 0.412 0.359 0.048 0.633-0.047 0.861-0.19 0.395-0.276 0.676-0.725 0.62-1.193-0.009-0.756-0.559-1.299-1.419-1.163zM23.336 22.713c-0.052-0.373 0.243-0.917 0.563-0.97 0.415-0.069 0.761 0.381 0.645 0.875-0.058 0.265-0.317 0.484-0.501 0.534-0.392 0.093-0.665-0.149-0.706-0.439zM26.284 22.405c-0.069-0.385 0.152-1.12-0.322-1.040-0.273 0.048-0.263 0.468-0.282 0.804-0.026 0.419-0.092 0.778-0.142 1.191-0.049 0.371-0.127 0.754 0.3 0.674 0.16-0.026 0.365-0.536 0.469-0.712 0.183-0.292 0.142-0.287 0.445-0.671 0.121-0.163 0.244-0.385 0.428-0.405 0.030 0.267-0.003 0.431-0.044 0.714-0.047 0.289-0.083 0.601-0.071 0.891 0.132 0.215 0.535 0.129 0.616-0.071 0.025-0.064 0.004-0.207 0.006-0.313 0.014-0.431 0.175-1.102 0.148-1.51-0.014-0.189-0.104-0.41-0.174-0.453-0.227-0.158-0.461-0.003-0.617 0.106-0.204 0.15-0.373 0.335-0.507 0.528-0.067 0.099-0.145 0.168-0.253 0.267zM30.95 22.887c0.179-0.091 0.402-0.033 0.628-0.070 0.213-0.037 0.263-0.45-0.001-0.544-0.294-0.094-0.396 0.004-0.583-0.076-0.091-0.155-0.006-0.875 0.033-1.051 0.065-0.288 0.164-0.836 0.442-0.83 0.165 0.003 0.202 0.223 0.253 0.342s0.1 0.297 0.213 0.306c0.135 0.044 0.337 0.001 0.387-0.17 0.049-0.111 0.031-0.372-0.083-0.604-0.153-0.316-0.415-0.54-0.824-0.459-0.421 0.080-0.646 0.383-0.831 0.799-0.167 0.369-0.22 0.687-0.277 1.141-0.020 0.124 0.010 0.378-0.044 0.448-0.067 0.087-0.001 0.053-0.167 0.056-0.154 0.003-0.327 0.088-0.353 0.229-0.019 0.065-0.044 0.147 0.037 0.237 0.203 0.211 0.187 0.092 0.475 0.169 0.076 0.344-0.042 0.939 0.034 1.259 0.049 0.196 0.48 0.222 0.567-0.012 0.1-0.293 0.014-1.010 0.094-1.168zM33.239 21.378c-0.19 0.026-0.285 0.089-0.429 0.192-0.228 0.173-0.259 0.237-0.399 0.447-0.267 0.379-0.346 1.057-0.041 1.494 0.168 0.181 0.507 0.376 0.807 0.412 0.359 0.048 0.633-0.047 0.861-0.19 0.395-0.276 0.676-0.725 0.62-1.193-0.009-0.757-0.559-1.299-1.419-1.163zM32.813 22.9c-0.052-0.373 0.243-0.917 0.563-0.97 0.415-0.069 0.761 0.381 0.645 0.875-0.058 0.265-0.317 0.484-0.501 0.534-0.392 0.093-0.665-0.149-0.706-0.439zM35.76 21.433c-0.052-0.060-0.146-0.097-0.234-0.093-0.319 0.006-0.312 0.218-0.373 0.654-0.063 0.477-0.096 1.274-0.147 1.758-0.020 0.124-0.046 0.259-0.024 0.33 0.028 0.071 0.151 0.145 0.239 0.152 0.224 0.016 0.337 0.007 0.4-0.193 0.076-0.247 0.083-0.914 0.106-1.191 0.002-0.1 0.409-0.364 0.653-0.43 0.101-0.033 0.356-0.093 0.481-0.121 0.119-0.027 0.34-0.159 0.309-0.396-0.021-0.113-0.162-0.192-0.285-0.207-0.212-0.034-0.456 0.056-0.617 0.112-0.149 0.056-0.353 0.241-0.5 0.191 0.016-0.195 0.054-0.365-0.007-0.567zM6.313 29.988c0.276 0.065 0.444-0.056 0.485-0.304 0.074-0.459 0.046-1.116 0.075-1.712 0.038-0.431 0.101-0.943 0.146-1.398 0.042-0.342 0.185-0.989-0.115-1.042-0.094-0.031-0.29 0-0.332 0.076-0.142 0.299-0.022 1.14-0.274 1.324-0.378-0.007-0.71 0.033-1.014 0.187-0.275 0.148-0.468 0.363-0.609 0.626-0.116 0.204-0.188 0.546-0.111 0.855 0.077 0.297 0.384 0.593 0.641 0.739 0.281 0.153 0.594 0.142 0.917 0.219 0.074 0.126 0.058 0.362 0.192 0.429zM6.24 28.29c-0.021 0.183-0.023 0.561-0.085 0.69-0.279 0.059-0.706-0.144-0.873-0.372-0.276-0.384 0.025-0.957 0.463-0.989 0.272-0.018 0.415-0.086 0.502 0.028 0.039 0.125 0.015 0.455-0.007 0.644zM7.995 26.091c-0.16 0.032-0.305 0.201-0.291 0.378 0.028 0.355 0.662 0.267 0.664-0.093-0.002-0.213-0.165-0.322-0.373-0.285zM7.922 27.094c-0.284 0.018-0.379 0.341-0.426 0.642-0.055 0.389-0.117 0.813-0.172 1.22-0.034 0.23-0.092 0.465 0.007 0.567 0.139 0.151 0.507 0.040 0.593-0.124 0.061-0.123 0.050-0.454 0.066-0.666 0.025-0.378 0.091-0.713 0.162-1.049 0.038-0.153 0.095-0.3 0.078-0.377-0.027-0.154-0.226-0.223-0.309-0.213zM9.619 26.821c-0.32 0.029-0.617 0.124-0.835 0.379-0.085 0.105-0.119 0.364-0.111 0.518 0.013 0.248 0.257 0.448 0.455 0.6 0.163 0.121 0.561 0.336 0.52 0.589-0.364 0.477-0.585 0.012-0.907 0.142-0.060 0.022-0.132 0.086-0.145 0.139-0.059 0.3 0.022 0.379 0.522 0.501 0.212 0.051 0.537 0.011 0.705-0.098 0.233-0.149 0.427-0.393 0.446-0.718 0.020-0.437-0.347-0.692-0.585-0.886-0.052-0.042-0.356-0.202-0.341-0.367 0.016-0.189 0.206-0.238 0.529-0.143 0.117 0.055 0.385 0.268 0.505 0.175 0.060-0.034 0.192-0.15 0.177-0.304-0.020-0.207-0.247-0.359-0.481-0.459-0.117-0.050-0.424-0.073-0.454-0.068zM13.039 29.128c-0.129-0.339-0.393-0.15-0.731-0.109-0.456 0.056-0.735-0.198-0.835-0.525-0.094-0.321 0.28-0.733 0.707-0.778 0.16-0.015 0.318 0.048 0.52 0.016 0.16-0.020 0.311-0.212 0.263-0.444-0.049-0.208-0.651-0.231-0.841-0.212-0.509 0.043-0.928 0.324-1.156 0.775-0.105 0.246-0.178 0.617-0.1 0.89 0.196 0.547 0.609 0.863 1.217 0.887 0.549 0.023 1.068-0.209 0.955-0.501zM14.463 26.916c-0.19 0.026-0.285 0.089-0.429 0.192-0.228 0.173-0.259 0.237-0.399 0.447-0.267 0.379-0.346 1.057-0.041 1.494 0.168 0.181 0.507 0.376 0.807 0.412 0.359 0.048 0.633-0.047 0.861-0.19 0.395-0.276 0.676-0.725 0.62-1.193-0.009-0.757-0.559-1.299-1.419-1.163zM14.037 28.438c-0.052-0.373 0.243-0.917 0.563-0.97 0.415-0.069 0.761 0.381 0.645 0.875-0.058 0.265-0.317 0.484-0.501 0.534-0.392 0.093-0.665-0.149-0.706-0.439zM17.112 28.865c-0.036-0.296-0.127-0.765-0.192-1.056-0.033-0.148-0.085-0.468-0.16-0.559-0.133-0.156-0.43-0.073-0.527 0.055-0.024 0.035-0.086 0.164-0.030 0.336 0.029 0.308 0.333 1.106 0.458 1.64 0.054 0.261 0.085 0.48 0.267 0.525 0.299 0.095 0.526-0.315 0.654-0.525 0.422-0.707 0.588-1.034 0.801-1.39 0.116-0.199 0.29-0.343 0.207-0.61-0.061-0.226-0.302-0.284-0.475-0.163-0.204 0.138-0.274 0.426-0.415 0.683-0.201 0.297-0.381 0.737-0.588 1.064zM19.467 28.977c0.143-0.044 0.386-0.111 0.57-0.16 0.273-0.071 0.411-0.151 0.678-0.241 0.161-0.050 0.277-0.249 0.268-0.408 0.002-0.106-0.076-0.344-0.116-0.416-0.242-0.602-0.723-0.782-1.306-0.593-0.238 0.066-0.508 0.291-0.655 0.554-0.194 0.256-0.266 0.627-0.164 1.137 0.15 0.487 0.3 0.662 0.775 0.866 0.298 0.165 0.878 0.1 1.184-0.113 0.102-0.081 0.135-0.263 0.008-0.402-0.222-0.14-0.393 0.175-0.788 0.085-0.259-0.058-0.411-0.114-0.455-0.31zM19.489 27.86c0.378-0.294 0.732-0.263 0.877 0.189-0.032 0.1-0.205 0.197-0.341 0.224-0.208 0.037-0.57 0.148-0.676 0.128-0.045-0.107-0.015-0.42 0.141-0.541zM22.106 27.073c-0.052-0.060-0.146-0.097-0.235-0.093-0.319 0.006-0.312 0.218-0.373 0.654-0.063 0.477-0.096 1.274-0.147 1.758-0.020 0.124-0.046 0.259-0.024 0.33 0.028 0.071 0.151 0.145 0.239 0.152 0.224 0.016 0.337 0.007 0.4-0.193 0.076-0.247 0.083-0.914 0.106-1.191 0.002-0.1 0.409-0.364 0.653-0.43 0.101-0.033 0.356-0.093 0.481-0.121 0.119-0.027 0.34-0.159 0.309-0.396-0.021-0.113-0.162-0.192-0.285-0.207-0.212-0.034-0.456 0.056-0.617 0.112-0.149 0.056-0.353 0.241-0.5 0.191 0.016-0.195 0.054-0.365-0.007-0.567zM25.846 27.826c0.218 0.022 0.471-0.239 0.916-0.301 0.135 0.020 0.33 0.332 0.179 0.529-0.097 0.116-0.604 0.071-0.895 0.154-0.166 0.050-0.376 0.17-0.46 0.251-0.132 0.127-0.29 0.331-0.231 0.645 0.015 0.136 0.131 0.263 0.235 0.359 0.254 0.283 0.518 0.394 0.864 0.537 0.1 0.043 0.341 0.089 0.442 0.074 0.142-0.015 0.3-0.224 0.344-0.342 0.101-0.317 0.166-0.641 0.238-0.982 0.053-0.3 0.15-0.724 0.093-1.103-0.041-0.308-0.236-0.596-0.448-0.677-0.37-0.090-0.662 0.028-1.038 0.21-0.191 0.079-0.417 0.187-0.392 0.424 0.016 0.107 0.044 0.178 0.155 0.222zM26.473 28.672c0.112-0.004 0.337-0.029 0.413 0.038-0.004 0.207-0.030 0.62-0.214 0.663-0.283-0.047-0.717-0.18-0.716-0.522 0.091-0.116 0.293-0.171 0.518-0.179zM31.097 27.309c-0.057-0.403 0.052-0.56 0.1-0.873 0.057-0.206 0.096-0.359-0.2-0.347-0.467 0.014-0.428 0.405-0.487 0.747-0.026 0.135-0.063 0.489-0.165 0.558-0.096 0.063-0.503 0.049-0.628 0.076-0.119 0.045-0.222 0.161-0.242 0.273-0.032 0.1 0.006 0.284 0.129 0.351 0.17 0.086 0.587-0.089 0.714 0.067-0.030 0.342-0.042 0.614-0.082 0.837-0.008 0.106-0.088 0.554-0.108 0.66-0.014 0.094-0.154 0.6-0.12 0.695 0.040 0.084 0.228 0.14 0.358 0.125 0.296-0.035 0.345-0.69 0.39-0.89 0.020-0.118 0.088-0.571 0.102-0.689 0.021-0.141 0.075-0.808 0.189-0.9 0.108-0.092 0.592-0.041 0.777-0.132 0.125-0.063 0.2-0.232 0.167-0.393-0.054-0.279-0.756-0.027-0.895-0.165zM33.013 27.288c-0.052-0.060-0.146-0.097-0.235-0.093-0.319 0.006-0.312 0.218-0.373 0.654-0.063 0.477-0.096 1.274-0.147 1.758-0.020 0.124-0.046 0.259-0.024 0.33 0.028 0.071 0.151 0.145 0.239 0.152 0.224 0.016 0.337 0.007 0.4-0.193 0.076-0.247 0.083-0.914 0.106-1.191 0.002-0.1 0.409-0.364 0.653-0.43 0.101-0.033 0.356-0.093 0.481-0.12 0.119-0.027 0.34-0.159 0.309-0.396-0.021-0.113-0.162-0.192-0.285-0.207-0.212-0.034-0.456 0.056-0.617 0.112-0.149 0.056-0.353 0.241-0.5 0.191 0.016-0.195 0.054-0.365-0.007-0.567zM35.294 29.289c0.143-0.044 0.386-0.111 0.57-0.16 0.273-0.071 0.411-0.151 0.678-0.241 0.161-0.050 0.277-0.249 0.268-0.408 0.002-0.106-0.076-0.344-0.116-0.416-0.242-0.602-0.723-0.782-1.306-0.593-0.238 0.066-0.508 0.291-0.655 0.554-0.194 0.256-0.266 0.627-0.164 1.137 0.15 0.487 0.3 0.662 0.775 0.866 0.298 0.165 0.878 0.1 1.184-0.113 0.102-0.081 0.135-0.263 0.008-0.402-0.222-0.14-0.393 0.175-0.788 0.085-0.259-0.058-0.411-0.114-0.455-0.31zM35.316 28.172c0.378-0.294 0.732-0.263 0.877 0.189-0.032 0.1-0.205 0.197-0.341 0.224-0.208 0.037-0.57 0.148-0.676 0.128-0.045-0.107-0.015-0.42 0.141-0.541zM37.934 28.543c-0.069-0.385 0.152-1.12-0.322-1.040-0.273 0.048-0.263 0.468-0.282 0.804-0.026 0.419-0.092 0.778-0.142 1.191-0.049 0.371-0.127 0.754 0.3 0.674 0.16-0.026 0.365-0.536 0.469-0.712 0.183-0.292 0.142-0.287 0.445-0.671 0.121-0.163 0.244-0.385 0.428-0.405 0.030 0.267-0.003 0.431-0.044 0.714-0.047 0.289-0.083 0.601-0.071 0.891 0.132 0.215 0.535 0.129 0.616-0.071 0.025-0.064 0.004-0.207 0.006-0.313 0.014-0.431 0.175-1.102 0.148-1.51-0.014-0.189-0.104-0.41-0.174-0.453-0.227-0.158-0.461-0.003-0.617 0.106-0.204 0.15-0.373 0.335-0.507 0.528-0.067 0.099-0.145 0.169-0.253 0.267zM41.602 30.684c0.276 0.065 0.444-0.056 0.485-0.304 0.074-0.459 0.046-1.116 0.075-1.712 0.038-0.431 0.101-0.943 0.146-1.398 0.042-0.342 0.185-0.989-0.115-1.042-0.094-0.031-0.29 0-0.332 0.076-0.142 0.299-0.023 1.14-0.274 1.324-0.378-0.007-0.71 0.033-1.014 0.187-0.275 0.148-0.468 0.363-0.609 0.626-0.116 0.204-0.188 0.546-0.111 0.855 0.077 0.297 0.384 0.593 0.641 0.739 0.281 0.153 0.594 0.142 0.917 0.219 0.074 0.126 0.058 0.362 0.192 0.429zM41.529 28.986c-0.021 0.183-0.023 0.561-0.084 0.69-0.279 0.059-0.706-0.144-0.873-0.372-0.276-0.384 0.025-0.957 0.463-0.989 0.272-0.018 0.415-0.086 0.502 0.028 0.039 0.125 0.015 0.455-0.007 0.644z"></path>
</symbol>
<symbol id="icon-mobileGroup3" viewBox="0 0 31 32">
<path fill="#fff" style="fill: var(--color1, #fff)" d="M16.070 16.919c0.593-0.562 0.613-1.26 0.548-1.905-0.102-0.896-0.302-1.791-0.586-2.634-1.412-3.847-4.078-6.585-7.755-8.328-0.936-0.44-1.951-0.753-3.041-1.156 0.744-0.793 1.889-1.030 2.702-1.807-0.431-0.223-0.783-0.064-1.079 0.060-1.21 0.513-2.426 1.049-3.624 1.613-0.573 0.276-0.69 0.563-0.375 1.074 0.641 1.072 1.547 1.844 2.701 2.287 0.046 0.011 0.131-0.042 0.267-0.106-0.018-1.046-1.333-1.115-1.59-2.072 1.668 0.007 3.115 0.641 4.483 1.401 1.432 0.799 2.762 1.72 3.851 2.946 1.071 1.198 1.836 2.566 2.505 4.033 0.697 1.449 0.99 2.972 0.993 4.595z"></path>
<path fill="#fff" style="fill: var(--color1, #fff)" d="M6.314 18.072c-0.197 0.060-0.342 0.131-0.491 0.231-0.349 0.246-0.603 0.697-0.474 1.276 0.085 0.395 0.367 0.678 0.742 0.833 0.148 0.073 0.479 0.212 0.542 0.38 0.076 0.21-0.077 0.407-0.199 0.469-0.239 0.136-0.521 0.026-0.797 0.072-0.17 0.028-0.28 0.091-0.31 0.209-0.017 0.056-0.035 0.169 0.044 0.298 0.168 0.214 0.545 0.138 0.779 0.151 0.424-0.036 0.746-0.244 0.911-0.446 0.106-0.127 0.219-0.386 0.253-0.544 0.079-0.366-0.113-0.738-0.336-0.917-0.325-0.253-0.95-0.284-1.002-0.889-0.018-0.209 0.237-0.448 0.527-0.463 0.191-0.009 0.291 0.192 0.354 0.302 0.072 0.134 0.145 0.373 0.287 0.393 0.222 0.029 0.397-0.269 0.375-0.439-0-0.052-0.080-0.285-0.133-0.377-0.12-0.451-0.767-0.657-1.073-0.539zM8.201 20.097c0.209 0.039 0.475-0.192 0.91-0.216 0.129 0.031 0.292 0.348 0.129 0.526-0.103 0.104-0.59 0.019-0.878 0.075-0.165 0.035-0.377 0.133-0.465 0.205-0.139 0.112-0.308 0.296-0.277 0.605 0.003 0.133 0.105 0.265 0.198 0.367 0.223 0.294 0.468 0.424 0.791 0.59 0.093 0.050 0.322 0.115 0.421 0.108 0.139-0.003 0.308-0.192 0.36-0.302 0.124-0.298 0.213-0.606 0.311-0.93 0.076-0.286 0.205-0.687 0.18-1.059-0.014-0.301-0.18-0.595-0.377-0.691-0.351-0.118-0.643-0.027-1.021 0.117-0.191 0.061-0.419 0.146-0.414 0.377 0.006 0.104 0.028 0.176 0.132 0.227zM8.738 20.966c0.109 0.006 0.328-0 0.396 0.070-0.021 0.2-0.080 0.597-0.261 0.624-0.269-0.069-0.679-0.233-0.65-0.564 0.097-0.105 0.297-0.142 0.515-0.13zM11.011 21.574c-0.010-0.289-0.059-0.75-0.099-1.036-0.019-0.146-0.044-0.46-0.109-0.553-0.116-0.162-0.409-0.106-0.514 0.009-0.026 0.032-0.097 0.151-0.057 0.322 0.003 0.3 0.231 1.096 0.308 1.623 0.031 0.257 0.043 0.471 0.215 0.53 0.282 0.116 0.535-0.261 0.676-0.453 0.466-0.648 0.653-0.951 0.889-1.278 0.129-0.182 0.309-0.308 0.25-0.573-0.040-0.223-0.268-0.299-0.446-0.197-0.208 0.116-0.3 0.389-0.458 0.626-0.219 0.271-0.429 0.681-0.656 0.98zM13.278 21.875c0.142-0.031 0.382-0.075 0.565-0.108 0.27-0.047 0.409-0.113 0.676-0.177 0.159-0.035 0.288-0.218 0.293-0.373 0.011-0.103-0.045-0.339-0.078-0.412-0.185-0.601-0.635-0.816-1.214-0.681-0.235 0.044-0.515 0.24-0.679 0.482-0.209 0.232-0.309 0.584-0.252 1.086 0.105 0.484 0.236 0.664 0.678 0.901 0.275 0.184 0.841 0.169 1.154-0.011 0.105-0.070 0.152-0.243 0.041-0.388-0.203-0.154-0.395 0.137-0.768 0.017-0.245-0.078-0.388-0.145-0.414-0.337zM13.392 20.798c0.39-0.253 0.729-0.194 0.832 0.255-0.039 0.094-0.214 0.173-0.348 0.188-0.204 0.019-0.563 0.096-0.664 0.069-0.035-0.107 0.020-0.407 0.181-0.511zM17.488 19.632c-0.244 0.072-0.25 0.515-0.315 0.808-0.139 0.608-0.213 1.263-0.402 1.906-0.073 0.252-0.22 0.726 0.071 0.803 0.151 0.039 0.384-0.092 0.46-0.211 0.111-0.179 0.099-0.56 0.159-0.796 0.106-0.461 0.211-1.13 0.326-1.62 0.052-0.225 0.218-0.542 0.166-0.697-0.059-0.208-0.321-0.235-0.464-0.193zM19.907 19.927c-1.037 0.052-1.404 0.965-1.553 1.727-0.109 0.323-0.214 1.049 0.144 1.312 0.241 0.175 0.591 0.408 1.075 0.355 1.306-0.139 1.644-1.936 1.392-2.556-0.132-0.337-0.479-0.869-1.059-0.837zM19.215 21.030c0.121-0.166 0.395-0.414 0.619-0.402 0.292 0.019 0.557 0.456 0.564 0.67 0.017 0.492-0.29 1.335-0.827 1.394-0.21 0.024-0.545-0.138-0.617-0.33-0.098-0.27 0.012-0.99 0.261-1.333zM24.643 20.286c-0.296 0.021-0.369 0.169-0.538 0.404-0.265 0.381-0.465 0.695-0.71 1.113-0.142 0.25-0.267 0.456-0.419 0.699-0.092 0.163-0.317 0.387-0.328 0.599-0.008 0.241 0.216 0.357 0.467 0.274 0.274-0.086 0.47-0.521 0.609-0.754 0.238-0.396 0.493-0.853 0.788-1.3 0.13-0.194 0.501-0.65 0.45-0.881-0.026-0.135-0.138-0.17-0.318-0.154zM22.545 20.118c-0.284 0.011-0.611 0.166-0.727 0.333-0.183 0.263-0.207 0.82 0.037 1.018 0.725 0.612 1.643-0.006 1.539-0.662-0.047-0.316-0.468-0.706-0.85-0.689zM22.779 21.018c-0.082 0.395-0.721-0.047-0.315-0.292 0.193-0.032 0.357 0.112 0.315 0.292zM24.987 22.109c-0.329 0.006-0.742 0.21-0.889 0.448-0.216 0.358-0.162 0.882 0.106 1.020 0.251 0.13 0.706 0.080 0.942-0.022 0.193-0.083 0.441-0.299 0.493-0.467 0.169-0.512-0.351-0.988-0.652-0.979zM25.048 22.899c-0.022 0.205-0.214 0.283-0.389 0.195-0.382-0.201 0.441-0.634 0.389-0.195zM3.851 27.425c0.361-0.031 0.652 0.051 0.963-0.118 0.318-0.116 0.674-0.384 0.837-0.615 0.269-0.369 0.245-0.908 0.036-1.224-0.334-0.444-0.739-0.539-1.306-0.627-0.235-0.013-0.587-0.004-0.714 0.213-0.154 0.474-0.294 1.099-0.38 1.591-0.059 0.397-0.111 0.732-0.168 1.158-0.031 0.245-0.137 0.533 0.063 0.612 0.31 0.119 0.488-0.145 0.547-0.432 0.044-0.197 0.060-0.409 0.122-0.558zM5.106 26.399c-0.212 0.37-0.742 0.533-1.219 0.465 0.009-0.305 0.127-0.77 0.229-1.14 0.073-0.257 0.056-0.311 0.32-0.301 0.541 0.011 0.974 0.442 0.67 0.975zM6.857 26.963c0.142-0.031 0.382-0.075 0.565-0.108 0.27-0.047 0.409-0.113 0.676-0.177 0.159-0.035 0.288-0.218 0.293-0.373 0.011-0.103-0.045-0.339-0.078-0.412-0.185-0.601-0.635-0.816-1.214-0.681-0.235 0.044-0.515 0.24-0.679 0.482-0.209 0.232-0.309 0.584-0.252 1.086 0.105 0.484 0.236 0.664 0.678 0.901 0.275 0.184 0.841 0.169 1.154-0.011 0.105-0.070 0.152-0.243 0.041-0.388-0.203-0.154-0.395 0.137-0.768 0.017-0.245-0.078-0.388-0.145-0.414-0.337zM6.97 25.886c0.39-0.253 0.729-0.194 0.832 0.255-0.039 0.094-0.214 0.173-0.348 0.188-0.204 0.019-0.563 0.096-0.664 0.069-0.035-0.107 0.020-0.407 0.181-0.511zM9.564 25.34c-0.045-0.062-0.133-0.106-0.219-0.109-0.309-0.021-0.319 0.185-0.415 0.602-0.1 0.456-0.198 1.224-0.287 1.687-0.030 0.118-0.066 0.247-0.051 0.317 0.021 0.071 0.134 0.152 0.219 0.167 0.215 0.034 0.325 0.034 0.402-0.154 0.094-0.232 0.156-0.877 0.201-1.143 0.010-0.097 0.425-0.318 0.666-0.362 0.101-0.024 0.352-0.061 0.475-0.077 0.117-0.017 0.342-0.125 0.331-0.357-0.011-0.111-0.14-0.199-0.259-0.223-0.202-0.050-0.446 0.017-0.605 0.057-0.149 0.042-0.361 0.204-0.499 0.143 0.031-0.187 0.083-0.349 0.040-0.549zM13.336 26.826c-0.023-0.169 0.273-0.951 0.058-1.152-0.057-0.058-0.188-0.077-0.254-0.050-0.264 0.099-0.283 0.391-0.334 0.766-0.029 0.164-0.070 0.396-0.119 0.639-0.055 0.248-0.088 0.509-0.126 0.701-0.047 0.231-0.098 0.439 0.014 0.52 0.059 0.046 0.253 0.061 0.35 0.019 0.109-0.046 0.206-0.209 0.3-0.383 0.16-0.317 0.337-0.518 0.524-0.763 0.101-0.134 0.189-0.32 0.358-0.331 0.076 0.262-0.074 0.592-0.147 0.907-0.030 0.118-0.073 0.252-0.069 0.327 0.019 0.313 0.38 0.282 0.568 0.135 0.244-0.188 0.467-0.55 0.648-0.796 0.062-0.097 0.141-0.193 0.256-0.238 0.016 0.232-0.057 0.432-0.106 0.628-0.043 0.186-0.123 0.454-0.104 0.663 0.032 0.355 0.451 0.313 0.573 0.083 0.064-0.12 0.107-0.415 0.143-0.59 0.038-0.198 0.071-0.402 0.114-0.587 0.065-0.293 0.274-1.020 0.034-1.149-0.29-0.151-0.533 0.192-0.67 0.344-0.085 0.095-0.207 0.215-0.292 0.315s-0.186 0.176-0.355 0.303c0.052-0.548 0.058-1.262-0.508-1.085-0.22 0.069-0.433 0.341-0.577 0.504-0.078 0.084-0.209 0.237-0.276 0.271zM17.525 26.171c-0.185 0.009-0.283 0.062-0.431 0.151-0.235 0.148-0.27 0.208-0.422 0.399-0.29 0.344-0.421 0.993-0.163 1.441 0.147 0.188 0.459 0.406 0.746 0.465 0.343 0.076 0.616 0.007 0.847-0.113 0.405-0.234 0.713-0.645 0.698-1.102 0.054-0.732-0.434-1.302-1.276-1.241zM16.988 27.608c-0.019-0.365 0.31-0.866 0.624-0.891 0.407-0.032 0.704 0.431 0.551 0.899-0.078 0.251-0.346 0.442-0.528 0.475-0.386 0.057-0.63-0.199-0.647-0.483zM19.862 27.552c-0.035-0.378 0.239-1.070-0.226-1.032-0.268 0.024-0.293 0.43-0.339 0.754-0.060 0.403-0.153 0.745-0.235 1.139-0.078 0.355-0.185 0.718 0.234 0.676 0.157-0.012 0.397-0.488 0.512-0.649 0.201-0.267 0.16-0.265 0.485-0.612 0.131-0.148 0.267-0.352 0.447-0.357 0.007 0.26-0.038 0.417-0.101 0.687-0.069 0.275-0.129 0.574-0.142 0.855 0.11 0.219 0.507 0.169 0.601-0.017 0.029-0.060 0.021-0.2 0.032-0.302 0.049-0.415 0.26-1.050 0.267-1.447 0.002-0.184-0.067-0.405-0.131-0.452-0.207-0.172-0.445-0.041-0.605 0.052-0.209 0.128-0.388 0.293-0.533 0.468-0.073 0.090-0.154 0.151-0.267 0.237zM23.291 26.841c-0.022-0.394 0.097-0.537 0.168-0.835 0.072-0.194 0.122-0.339-0.165-0.352-0.453-0.024-0.447 0.357-0.533 0.682-0.037 0.129-0.101 0.468-0.205 0.526-0.098 0.053-0.49 0.006-0.613 0.022-0.119 0.034-0.228 0.137-0.256 0.244-0.039 0.094-0.017 0.275 0.096 0.35 0.157 0.097 0.574-0.038 0.684 0.124-0.058 0.328-0.091 0.59-0.148 0.803-0.016 0.102-0.13 0.528-0.158 0.629-0.021 0.090-0.198 0.567-0.173 0.662 0.032 0.084 0.209 0.154 0.336 0.151 0.289-0.010 0.39-0.639 0.45-0.829 0.029-0.112 0.132-0.545 0.156-0.658 0.031-0.135 0.139-0.775 0.257-0.855 0.112-0.080 0.575 0.009 0.762-0.064 0.126-0.050 0.212-0.208 0.194-0.366-0.029-0.274-0.728-0.088-0.851-0.234zM25.292 27.218c-0.058-0 0.066-0.408 0.12-0.644 0.034-0.163 0.17-0.409 0.081-0.602-0.047-0.097-0.196-0.165-0.33-0.15-0.262 0.030-0.311 0.549-0.384 0.916-0.071 0.35-0.143 0.596-0.227 1.008-0.131 0.591-0.221 0.841-0.346 1.376-0.074 0.321-0.101 0.635 0.146 0.695 0.356 0.066 0.385-0.213 0.445-0.501 0.11-0.444 0.127-0.713 0.261-1.108 0.066-0.137 0.16-0.265 0.273-0.346 0.101-0.082 0.236-0.16 0.424-0.14 0.088 0.096-0.003 0.743-0.012 0.88-0.070 0.609-0.18 1.111-0.128 1.22s0.297 0.187 0.437 0.069c0.157-0.128 0.18-0.511 0.213-0.871 0.036-0.342 0.105-0.779 0.117-1.060 0.019-0.396-0.053-0.812-0.298-0.89-0.329-0.104-0.49 0.168-0.788 0.148z"></path>
</symbol>
<symbol id="icon-menu-cross" viewBox="0 0 32 32">
<path d="M6.571 8.458l16.971 16.971 1.886-1.886-16.971-16.971-1.886 1.886z"></path>
<path  d="M8.457 25.428l16.971-16.971-1.886-1.886-16.971 16.971 1.886 1.886z"></path>
</symbol>
<symbol id="icon-menu" viewBox="0 0 32 32">
<path d="M4 22.667h24v-2.667h-24v2.667z"></path>
<path d="M4 12h24v-2.667h-24v2.667z"></path>
</symbol>
</defs>
</svg>
